<svg width="1027" height="854" viewBox="0 0 1027 854" fill="none" xmlns="http://www.w3.org/2000/svg">
<path d="M286.528 11.8655C328.401 0.723899 386.221 3.45898 451.726 15.6868C517.117 27.8936 589.711 49.4694 660.89 75.6019C802.255 127.503 937.384 197.133 999.04 246.448L1000.48 247.609C1014.89 259.28 1021.6 274.105 1022.45 291.645C1023.31 309.372 1018.19 329.974 1008.6 352.807C989.415 398.494 952.965 451.669 914.305 506.118C875.78 560.377 835.101 615.846 808.042 665.636C794.505 690.545 784.251 714.253 779.398 735.866C774.545 757.483 775.018 777.365 783.417 794.279C787.065 801.624 787.944 807.751 786.881 812.884C785.822 817.994 782.723 822.674 777.341 826.93C766.375 835.601 746.76 841.846 720.016 845.545C666.79 852.907 588.095 849.854 502.452 839.323C416.884 828.8 324.688 810.85 244.578 788.576C165.565 766.608 98.8147 740.568 61.6387 713.579L59.8916 712.293C24.0675 685.581 8.89317 632.003 9.88281 564.288C10.8687 496.835 27.8964 416.59 54.9824 338.234C82.0623 259.895 119.112 183.687 159.965 124.302C200.647 65.1651 244.561 23.5028 285.561 12.1282L286.528 11.8655Z" stroke="#F5821F" stroke-width="8"/>
<g filter="url(#filter0_d_37_387)">
<path d="M140.4 46.5907C361.628 138.372 802.786 -52.9837 925.739 46.5907C1048.69 146.165 862.964 533.207 925.739 659.623C988.514 786.039 290.195 771.319 140.4 659.623C-9.39449 547.926 -80.8284 -45.191 140.4 46.5907Z" fill="#E6B100"/>
</g>
<path d="M664.602 405.648L678.479 403.131L681.947 413.803L667.992 418.337L664.602 405.648Z" fill="#9F616A"/>
<path d="M568.488 662.373C568.488 662.373 557.48 635.278 590.504 614.956L568.488 662.373Z" fill="white"/>
<path d="M580.224 661.881C580.224 661.881 576.866 642.572 550.876 642.734L580.224 661.881Z" fill="white"/>
<path d="M803.231 662.373C803.231 662.373 788.684 626.576 832.316 599.729L803.231 662.373Z" fill="white"/>
<path d="M785.345 661.722C785.345 661.722 780.909 636.208 746.573 636.427L785.345 661.722Z" fill="white"/>
<path d="M620.993 256.253L598.212 244.152L599.917 243.246L622.698 255.348L620.993 256.253Z" fill="#F5821F"/>
<path d="M601.121 256.253L599.417 255.348L622.197 243.246L623.902 244.152L601.121 256.253Z" fill="#F5821F"/>
<path d="M495.098 193.216L494.405 194.568L498.462 196.647L499.155 195.295L495.098 193.216Z" fill="#373737"/>
<path d="M579.213 238.03L571.138 233.892L571.831 232.539L579.906 236.677L579.213 238.03ZM563.062 229.754L554.986 225.615L555.679 224.262L563.755 228.401L563.062 229.754ZM546.911 221.477L538.836 217.339L539.529 215.986L547.604 220.124L546.911 221.477ZM530.76 213.201L522.685 209.063L523.377 207.711L531.453 211.848L530.76 213.201ZM514.61 204.925L506.534 200.787L507.227 199.435L515.302 203.573L514.61 204.925Z" fill="#373737"/>
<path d="M587.985 240.814L587.292 242.167L591.349 244.246L592.042 242.893L587.985 240.814Z" fill="#373737"/>
<path d="M281.641 294.949C281.641 295.423 281.626 295.894 281.595 296.361C281.422 299.053 280.742 301.688 279.59 304.127C279.582 304.148 279.571 304.167 279.562 304.187C279.508 304.3 279.453 304.413 279.397 304.525C279.054 305.214 278.674 305.885 278.258 306.533C276.359 309.51 273.756 311.973 270.679 313.704C267.602 315.436 264.146 316.383 260.616 316.461L260.829 328.699L263.6 327.237L264.095 328.179L260.845 329.89L261.243 352.617L261.247 352.921L259.102 353.399L259.106 353.094L259.781 316.463C256.94 316.422 254.135 315.818 251.53 314.684C248.924 313.55 246.57 311.91 244.603 309.859C244.468 309.72 244.334 309.575 244.203 309.432L244.189 309.416C242.551 307.63 241.225 305.581 240.269 303.355C240.29 303.378 240.312 303.401 240.333 303.425C238.173 298.373 238.026 292.686 239.923 287.53C241.82 282.374 245.618 278.138 250.537 275.691L250.762 275.581C255.629 273.237 261.198 272.807 266.366 274.376C271.534 275.945 275.925 279.399 278.667 284.052C278.797 284.272 278.926 284.497 279.046 284.723C280.749 287.864 281.639 291.381 281.635 294.953L281.641 294.949Z" fill="white"/>
<path d="M278.745 304.197C294.321 304.197 306.948 291.57 306.948 275.994C306.948 260.418 294.321 247.791 278.745 247.791C263.169 247.791 250.542 260.418 250.542 275.994C250.542 291.57 263.169 304.197 278.745 304.197Z" fill="#F5821F"/>
<path opacity="0.2" d="M257.921 257.157C255.291 263.311 254.934 270.2 256.915 276.592C258.895 282.985 263.085 288.465 268.734 292.053C274.383 295.641 281.124 297.104 287.752 296.18C294.381 295.255 300.464 292.004 304.916 287.007C303.309 290.767 300.904 294.132 297.867 296.87C294.83 299.607 291.235 301.652 287.329 302.862C283.424 304.072 279.302 304.419 275.249 303.878C271.196 303.337 267.31 301.921 263.858 299.729C260.407 297.537 257.474 294.621 255.261 291.182C253.049 287.744 251.611 283.865 251.046 279.816C250.481 275.767 250.804 271.643 251.991 267.73C253.178 263.818 255.202 260.21 257.921 257.157Z" fill="#1E1E1E"/>
<path d="M280.272 354.562L277.391 353.754L277.397 353.444L278.263 306.531L278.307 304.193V304.125L278.457 295.928L278.675 284.049L278.823 275.996H278.903L279.055 284.721L279.252 296.075L279.393 304.128V304.188L279.399 304.52L279.673 320.225L279.701 321.784L280.267 354.245L280.272 354.562Z" fill="#3F3D56"/>
<path d="M283.309 318.315L278.647 320.77L279.297 322.004L283.959 319.55L283.309 318.315Z" fill="#3F3D56"/>
<path d="M644.344 184.718C608.746 182.615 573.041 183.165 537.525 186.364C520.407 187.911 503.017 189.582 486.215 193.316C472.682 196.324 456.975 201.407 448.543 213.247C446.777 215.633 445.587 218.394 445.066 221.316C444.545 224.239 444.707 227.242 445.54 230.091C447.55 236.844 452.553 242.459 457.878 246.859C470.137 256.989 485.348 262.877 498.935 270.93C523.743 285.621 546.447 305.422 561.017 330.576C567.43 341.644 573.53 356.362 566.386 368.559C559.39 380.508 543.774 384.624 531.039 386.569C515.077 389.002 498.635 388.342 482.606 386.979C465.034 385.34 447.559 382.781 430.254 379.311C396.353 372.801 362.761 364.521 328.39 360.756C311.156 358.728 293.776 358.226 276.454 359.253C260.809 360.309 245.03 362.783 230.334 368.424C219.009 372.771 206.937 379.348 200.819 390.316C194.923 400.889 197.223 413.081 203.644 422.836C211.37 434.573 223.417 442.616 235.941 448.494C250.201 455.188 265.455 459.526 280.727 463.214C288.473 465.085 296.261 466.777 304.049 468.46C305.674 468.811 306.368 466.316 304.742 465.963C289.035 462.569 273.284 459.164 257.967 454.252C243.794 449.705 229.289 443.881 217.682 434.337C208.292 426.613 199.364 415.333 199.918 402.507C200.477 389.577 211.325 380.549 221.958 374.992C235.246 368.048 250.343 364.665 265.137 362.897C282.076 361.01 299.158 360.778 316.142 362.204C350.43 364.813 383.958 372.625 417.579 379.435C450.241 386.053 483.922 392.183 517.395 390.485C530.662 389.812 544.878 387.911 556.592 381.214C561.955 378.148 566.792 373.824 569.517 368.197C571.973 362.843 572.75 356.871 571.745 351.067C569.846 338.318 562.274 326.497 554.718 316.346C546.438 305.328 536.831 295.372 526.116 286.702C514.356 277.238 501.676 268.978 488.266 262.046C481.155 258.302 473.943 254.702 467.167 250.366C460.673 246.209 454.26 241.205 450.292 234.455C446.86 228.618 446.23 221.955 449.806 216.034C453.421 210.046 459.651 205.869 465.793 202.817C480.593 195.463 497.8 193.495 513.991 191.474C548.759 187.158 583.798 185.411 618.823 186.247C627.336 186.447 635.844 186.799 644.346 187.304C646.011 187.402 646.005 184.812 644.346 184.714L644.344 184.718Z" fill="white"/>
<path d="M563.749 110.545L569.126 106.244C564.949 105.784 563.232 108.063 562.53 109.864C559.267 108.509 555.714 110.285 555.714 110.285L566.472 114.191C565.93 112.742 564.985 111.477 563.749 110.545Z" fill="#3F3D56"/>
<path d="M595.667 115.328L601.044 111.027C596.867 110.567 595.15 112.846 594.447 114.647C591.184 113.292 587.631 115.068 587.631 115.068L598.39 118.974C597.847 117.525 596.902 116.26 595.667 115.328Z" fill="#3F3D56"/>
<path d="M621.762 136.885L627.139 132.584C622.962 132.123 621.245 134.402 620.543 136.204C617.279 134.849 613.727 136.625 613.727 136.625L624.486 140.535C623.943 139.085 622.999 137.821 621.763 136.889L621.762 136.885Z" fill="#3F3D56"/>
<path d="M591.953 176.977H512.479C512.379 176.978 512.28 176.97 512.182 176.953L549.771 111.85C550 111.444 550.333 111.107 550.735 110.872C551.138 110.637 551.595 110.513 552.061 110.513C552.527 110.513 552.985 110.637 553.387 110.872C553.79 111.107 554.122 111.444 554.352 111.85L579.577 155.538L580.789 157.628L591.953 176.977Z" fill="#F5821F"/>
<path d="M636.201 176.978H567.464L580.783 157.63L581.742 156.236L599.098 131.019C599.405 130.633 599.79 130.317 600.227 130.089C600.664 129.862 601.145 129.729 601.637 129.7C602.129 129.67 602.622 129.745 603.083 129.919C603.544 130.092 603.964 130.361 604.315 130.707C604.405 130.806 604.488 130.91 604.565 131.019L636.201 176.978Z" fill="#F5821F"/>
<path d="M522.814 326.294C530.347 330.059 534.937 335.032 534.937 340.487C534.937 352.236 513.675 361.761 487.449 361.761C476.046 361.761 465.586 359.959 457.404 356.958C466.099 361.304 478.719 364.04 492.772 364.04C518.998 364.04 540.259 354.515 540.259 342.765C540.252 336.124 533.456 330.196 522.814 326.294Z" fill="white"/>
<path d="M539.571 334.365C548.071 338.614 553.246 344.224 553.246 350.379C553.246 363.637 529.256 374.384 499.662 374.384C486.795 374.384 474.992 372.351 465.755 368.965C475.566 373.868 489.807 376.956 505.663 376.956C535.257 376.956 559.247 366.208 559.247 352.951C559.247 345.461 551.578 338.767 539.571 334.365Z" fill="white"/>
<path d="M516.402 329.849C521.709 332.502 524.94 336.005 524.94 339.848C524.94 348.125 509.961 354.836 491.484 354.836C484.286 354.929 477.125 353.784 470.314 351.452C476.439 354.514 485.331 356.441 495.232 356.441C513.708 356.441 528.688 349.73 528.688 341.453C528.688 336.775 523.899 332.598 516.402 329.849Z" fill="white"/>
<path d="M441.833 328.33C441.833 328.33 442.999 345.376 476.43 345.376C509.861 345.376 519.842 328.33 519.842 328.33H441.833Z" fill="#3F3D56"/>
<path d="M489.284 283.604C484.458 279.937 478.4 278.28 472.38 278.98C477.757 280.28 482.506 283.431 485.793 287.882C489.079 292.332 490.694 297.798 490.354 303.32C490.014 308.842 487.74 314.069 483.932 318.082C480.124 322.096 475.025 324.641 469.528 325.271C474.789 326.543 480.327 325.965 485.212 323.634C490.096 321.303 494.029 317.36 496.347 312.469C498.666 307.579 499.23 302.039 497.943 296.782C496.657 291.525 493.599 286.871 489.284 283.604Z" fill="#3F3D56"/>
<path d="M478.328 275.903H476.049V330.16H478.328V275.903Z" fill="#3F3D56"/>
<path d="M628.129 235.591L628.117 235.57L628.086 234.244L635.226 223.876L628.094 233.252L628.069 233.532L627.825 222.935L633.992 212.186L627.808 221.073L627.873 199.119V199.046V199.118L627.463 216.421L621.842 209.393L627.445 217.912L627.322 227.391L622.149 218.14L627.303 228.785L627.234 234.055L627.046 248.658L627.032 249.749C627.508 249.753 627.98 249.745 628.447 249.726L628.123 235.699L628.129 235.591Z" fill="#373737"/>
<path d="M593.938 240.148L593.926 240.127L593.895 238.801L601.036 228.433L593.907 237.81L593.881 238.09L593.637 227.493L599.804 216.744L593.619 225.631L593.684 203.676V203.608V203.68L593.274 220.983L587.653 213.955L593.256 222.474L593.133 231.953L587.96 222.702L593.114 233.347L593.045 238.618L592.857 253.22L592.843 254.311C593.319 254.315 593.791 254.307 594.258 254.288L593.934 240.261L593.938 240.148Z" fill="#373737"/>
<path d="M610.652 225.714L610.64 225.693L610.609 224.367L617.75 213.999L610.618 223.375L610.592 223.655L610.347 213.058L616.515 202.309L610.33 211.197L610.395 189.242L609.985 206.544L604.364 199.516L609.967 208.035L609.844 217.514L604.672 208.263L609.825 218.908L609.757 224.178L609.568 238.781L609.554 239.872C610.03 239.876 610.502 239.868 610.969 239.849L610.645 225.822L610.652 225.714Z" fill="#373737"/>
<path d="M328.269 478.009C333.305 478.009 337.387 473.927 337.387 468.892C337.387 463.856 333.305 459.774 328.269 459.774C323.234 459.774 319.152 463.856 319.152 468.892C319.152 473.927 323.234 478.009 328.269 478.009Z" fill="#F5821F"/>
<path d="M731.645 646.025L723.204 649.161L707.09 618.096L719.549 613.469L731.645 646.025Z" fill="#9F616A"/>
<path d="M736.838 653.409L709.62 663.521L709.492 663.174C708.448 660.365 708.563 657.256 709.811 654.531C711.06 651.806 713.339 649.688 716.149 648.644L732.773 642.468L736.838 653.409Z" fill="#3F3D56"/>
<path d="M648.577 654.792H639.572L635.288 620.059H648.578L648.577 654.792Z" fill="#9F616A"/>
<path d="M650.139 663.521H621.104V663.154C621.104 660.156 622.295 657.282 624.414 655.163C626.533 653.043 629.407 651.853 632.404 651.852H650.139V663.521Z" fill="#3F3D56"/>
<path d="M689.807 413.908L686.863 408.034L661.89 420.521L662.625 425.663L657.85 431.905C657.85 431.905 649.771 436.313 651.24 451.002L652.712 464.957L654.549 482.952L641.695 527.389L635.084 586.143L630.31 633.518L653.447 632.416L674.747 555.295L712.206 638.292L737.912 631.687L702.656 549.421L698.249 514.9C698.249 514.9 701.187 496.538 687.232 484.052L689.435 477.442V469.296L696.78 430.434L689.807 413.908Z" fill="white"/>
<path opacity="0.2" d="M690.489 497.89L674.33 555.179L675.161 555.414L691.32 498.124L690.489 497.89Z" fill="#1E1E1E"/>
<path d="M689.067 482.95H653.078V486.622H689.067V482.95Z" fill="#3F3D56"/>
<path d="M653.079 488.826C653.891 488.826 654.549 487.182 654.549 485.153C654.549 483.125 653.891 481.481 653.079 481.481C652.268 481.481 651.61 483.125 651.61 485.153C651.61 487.182 652.268 488.826 653.079 488.826Z" fill="#3F3D56"/>
<path d="M678.695 404.408C688.183 399.222 691.67 387.326 686.483 377.838C681.297 368.351 669.401 364.864 659.914 370.05C650.426 375.237 646.939 387.132 652.126 396.62C657.312 406.107 669.208 409.594 678.695 404.408Z" fill="#9F616A"/>
<path d="M699.268 380.24C708.834 380.24 716.588 372.486 716.588 362.92C716.588 353.355 708.834 345.6 699.268 345.6C689.703 345.6 681.948 353.355 681.948 362.92C681.948 372.486 689.703 380.24 699.268 380.24Z" fill="#3F3D56"/>
<path d="M721.247 361.066C721.923 363.358 722.117 365.766 721.817 368.137C721.517 370.509 720.73 372.792 719.504 374.844C718.278 376.896 716.641 378.672 714.695 380.06C712.749 381.449 710.537 382.419 708.198 382.911C705.859 383.402 703.444 383.404 701.104 382.917C698.764 382.429 696.55 381.462 694.602 380.077C692.654 378.692 691.014 376.919 689.785 374.869C688.556 372.819 687.764 370.536 687.46 368.166C688.692 372.342 691.452 375.902 695.19 378.135C698.928 380.368 703.37 381.11 707.632 380.215C711.893 379.319 715.661 376.851 718.184 373.303C720.707 369.754 721.801 365.385 721.247 361.066Z" fill="#3F3D56"/>
<path d="M652.822 381.794C652.314 386.271 653.296 390.791 655.617 394.653C657.938 398.515 661.468 401.503 665.66 403.155C669.852 404.808 674.472 405.031 678.804 403.792C683.135 402.552 686.937 399.918 689.62 396.298C692.303 392.679 693.718 388.275 693.644 383.77C693.571 379.265 692.013 374.91 689.213 371.38C686.414 367.849 682.528 365.341 678.158 364.243C673.788 363.146 669.178 363.52 665.042 365.308C661.622 362.55 657.381 363.403 653.933 366.316C650.037 369.606 648.877 371.869 645.854 377.282C648.827 377.7 649.849 381.377 652.822 381.794Z" fill="#3F3D56"/>
<path d="M724.787 440.669C724.568 446.47 724.133 457.892 724.133 458.474C724.133 459.088 715.474 477.015 711.735 484.731C711.469 485.275 711.23 485.77 711.019 486.203C710.729 486.802 710.274 487.305 709.708 487.653C709.141 488.001 708.487 488.179 707.822 488.167L691.476 487.873C690.579 487.857 689.722 487.496 689.085 486.864C688.448 486.232 688.079 485.379 688.055 484.482L686.232 412.567C686.225 412.33 686.267 412.094 686.353 411.873C686.44 411.652 686.57 411.451 686.735 411.281C686.901 411.111 687.098 410.976 687.317 410.884C687.535 410.791 687.77 410.744 688.007 410.744H709.088C709.978 410.744 710.851 410.996 711.605 411.469C712.359 411.942 712.965 412.618 713.352 413.42L723.47 434.351C724.419 436.319 724.872 438.489 724.789 440.672L724.787 440.669Z" fill="#F5821F"/>
<path d="M687.77 479.549C683.576 477.007 679.806 473.822 676.601 470.111C669.152 461.734 664.623 451.167 663.691 439.996C662.86 430.439 664.756 423.334 669.328 418.881C675.139 413.219 683.048 414.042 683.382 414.08L683.736 414.12L689.098 418.653L687.581 420.446L682.787 416.389C681.319 416.316 675.328 416.303 670.952 420.581C666.923 424.521 665.269 430.985 666.034 439.793C666.921 450.429 671.223 460.493 678.299 468.482C681.351 472.013 684.929 475.053 688.907 477.494L687.77 479.549Z" fill="#F5821F"/>
<path d="M718.197 452.234L689.622 458.095L689.78 458.862L718.354 453.002L718.197 452.234Z" fill="#3F3D56"/>
<path d="M699.363 410.734L698.581 410.766L700.445 456.205L701.227 456.173L699.363 410.734Z" fill="#3F3D56"/>
<path d="M724.788 440.672C724.569 446.474 724.135 457.895 724.135 458.478C724.135 459.092 715.476 477.019 711.736 484.734L718.708 444.253C718.978 442.695 719.657 441.237 720.675 440.028C721.693 438.819 723.014 437.902 724.503 437.371C724.737 438.455 724.833 439.564 724.788 440.672Z" fill="#3F3D56"/>
<path d="M681.953 525.511C682.57 524.716 683.005 523.795 683.228 522.813C683.451 521.831 683.456 520.812 683.242 519.828C683.028 518.844 682.602 517.919 681.992 517.118C681.382 516.317 680.604 515.659 679.713 515.191L681.129 499.519L671.813 496.334L670.123 518.5C669.443 520.049 669.354 521.794 669.871 523.404C670.389 525.015 671.478 526.38 672.933 527.243C674.388 528.105 676.109 528.406 677.77 528.088C679.431 527.769 680.919 526.854 681.952 525.514L681.953 525.511Z" fill="#9F616A"/>
<path d="M683.17 510.344L666.663 509.746L667.361 430.142C667.349 427.89 668.046 425.69 669.352 423.855C670.658 422.02 672.508 420.642 674.64 419.915C676.633 419.253 678.786 419.251 680.779 419.91C683.041 420.674 684.983 422.17 686.3 424.161C687.617 426.153 688.234 428.526 688.053 430.906L683.17 510.344Z" fill="#373737"/>
<defs>
<filter id="filter0_d_37_387" x="0" y="17.0001" width="978.835" height="742" filterUnits="userSpaceOnUse" color-interpolation-filters="sRGB">
<feFlood flood-opacity="0" result="BackgroundImageFix"/>
<feColorMatrix in="SourceAlpha" type="matrix" values="0 0 0 0 0 0 0 0 0 0 0 0 0 0 0 0 0 0 127 0" result="hardAlpha"/>
<feOffset dx="10" dy="10"/>
<feComposite in2="hardAlpha" operator="out"/>
<feColorMatrix type="matrix" values="0 0 0 0 0.886275 0 0 0 0 0.909804 0 0 0 0 0.866667 0 0 0 1 0"/>
<feBlend mode="normal" in2="BackgroundImageFix" result="effect1_dropShadow_37_387"/>
<feBlend mode="normal" in="SourceGraphic" in2="effect1_dropShadow_37_387" result="shape"/>
</filter>
</defs>
</svg>
