<svg width="367" height="583" viewBox="0 0 367 583" fill="none" xmlns="http://www.w3.org/2000/svg">
<rect x="17" y="17" width="332" height="548" fill="#373737"/>
<path d="M312.656 0H53.9062C39.6094 0 25.8982 5.67939 15.7888 15.7888C5.67939 25.8982 0 39.6094 0 53.9062V528.281C0 542.578 5.67939 556.289 15.7888 566.399C25.8982 576.508 39.6094 582.188 53.9062 582.188H312.656C326.953 582.188 340.664 576.508 350.774 566.399C360.883 556.289 366.562 542.578 366.562 528.281V53.9062C366.562 39.6094 360.883 25.8982 350.774 15.7888C340.664 5.67939 326.953 0 312.656 0ZM345 528.281C345 536.859 341.592 545.086 335.527 551.152C329.461 557.217 321.234 560.625 312.656 560.625H53.9062C45.3282 560.625 37.1014 557.217 31.0358 551.152C24.9701 545.086 21.5625 536.859 21.5625 528.281V53.9062C21.5625 45.3282 24.9701 37.1014 31.0358 31.0358C37.1014 24.9701 45.3282 21.5625 53.9062 21.5625H312.656C321.234 21.5625 329.461 24.9701 335.527 31.0358C341.592 37.1014 345 45.3282 345 53.9062V528.281ZM204.844 107.812C204.844 112.077 203.579 116.246 201.21 119.792C198.841 123.338 195.473 126.102 191.533 127.734C187.593 129.366 183.257 129.793 179.075 128.961C174.892 128.129 171.05 126.075 168.034 123.059C165.019 120.044 162.965 116.202 162.133 112.019C161.301 107.836 161.728 103.501 163.36 99.5609C164.992 95.6209 167.756 92.2533 171.302 89.8839C174.848 87.5146 179.017 86.25 183.281 86.25C189 86.25 194.484 88.5218 198.528 92.5655C202.572 96.6093 204.844 102.094 204.844 107.812Z" fill="#F5821F"/>
<rect x="57" y="159" width="251" height="30" rx="15" fill="white"/>
<path d="M298.797 181.819L294.469 177.491C295.724 175.985 296.349 174.053 296.216 172.098C296.082 170.142 295.2 168.313 293.752 166.992C292.305 165.67 290.403 164.957 288.444 165.002C286.484 165.047 284.617 165.845 283.231 167.231C281.845 168.617 281.047 170.484 281.002 172.444C280.957 174.403 281.67 176.305 282.992 177.752C284.313 179.2 286.142 180.082 288.098 180.216C290.053 180.349 291.985 179.724 293.491 178.469L297.819 182.797C297.883 182.862 297.959 182.913 298.043 182.947C298.127 182.982 298.217 183 298.308 183C298.399 183 298.489 182.982 298.573 182.947C298.657 182.913 298.733 182.862 298.797 182.797C298.862 182.733 298.913 182.657 298.947 182.573C298.982 182.489 299 182.399 299 182.308C299 182.217 298.982 182.127 298.947 182.043C298.913 181.959 298.862 181.883 298.797 181.819ZM282.402 172.626C282.402 171.395 282.767 170.192 283.451 169.168C284.135 168.145 285.107 167.347 286.244 166.876C287.382 166.405 288.633 166.282 289.84 166.522C291.048 166.762 292.157 167.355 293.027 168.225C293.898 169.096 294.491 170.205 294.731 171.412C294.971 172.619 294.848 173.871 294.376 175.008C293.905 176.145 293.108 177.117 292.084 177.801C291.061 178.485 289.857 178.85 288.626 178.85C286.976 178.848 285.394 178.192 284.227 177.025C283.06 175.858 282.404 174.276 282.402 172.626Z" fill="#F5821F"/>
<path d="M51.0387 267V257.545H52.4652V265.772H56.7493V267H51.0387ZM61.2527 267.143C60.5879 267.143 60.0078 266.991 59.5123 266.686C59.0167 266.381 58.632 265.955 58.3581 265.407C58.0842 264.859 57.9473 264.219 57.9473 263.487C57.9473 262.751 58.0842 262.108 58.3581 261.557C58.632 261.006 59.0167 260.578 59.5123 260.274C60.0078 259.969 60.5879 259.817 61.2527 259.817C61.9174 259.817 62.4976 259.969 62.9931 260.274C63.4886 260.578 63.8733 261.006 64.1472 261.557C64.4211 262.108 64.5581 262.751 64.5581 263.487C64.5581 264.219 64.4211 264.859 64.1472 265.407C63.8733 265.955 63.4886 266.381 62.9931 266.686C62.4976 266.991 61.9174 267.143 61.2527 267.143ZM61.2573 265.984C61.6882 265.984 62.0452 265.871 62.3283 265.643C62.6114 265.415 62.8207 265.112 62.9561 264.733C63.0946 264.355 63.1639 263.938 63.1639 263.482C63.1639 263.03 63.0946 262.614 62.9561 262.236C62.8207 261.854 62.6114 261.548 62.3283 261.317C62.0452 261.086 61.6882 260.971 61.2573 260.971C60.8233 260.971 60.4632 261.086 60.177 261.317C59.8939 261.548 59.6831 261.854 59.5446 262.236C59.4092 262.614 59.3414 263.03 59.3414 263.482C59.3414 263.938 59.4092 264.355 59.5446 264.733C59.6831 265.112 59.8939 265.415 60.177 265.643C60.4632 265.871 60.8233 265.984 61.2573 265.984ZM69.0857 267.143C68.3994 267.143 67.8084 266.988 67.3129 266.677C66.8205 266.363 66.442 265.931 66.1773 265.38C65.9126 264.829 65.7803 264.198 65.7803 263.487C65.7803 262.767 65.9157 262.131 66.1865 261.58C66.4574 261.026 66.839 260.594 67.3314 260.283C67.8238 259.972 68.404 259.817 69.0718 259.817C69.6104 259.817 70.0905 259.917 70.5122 260.117C70.9338 260.314 71.2739 260.591 71.5324 260.948C71.794 261.305 71.9494 261.722 71.9987 262.199H70.6553C70.5814 261.866 70.4121 261.58 70.1475 261.34C69.8859 261.1 69.535 260.98 69.0949 260.98C68.7102 260.98 68.3732 261.082 68.0839 261.285C67.7977 261.485 67.5745 261.771 67.4145 262.143C67.2545 262.513 67.1744 262.95 67.1744 263.455C67.1744 263.972 67.2529 264.418 67.4099 264.793C67.5669 265.169 67.7884 265.46 68.0747 265.666C68.364 265.872 68.704 265.975 69.0949 265.975C69.3565 265.975 69.5935 265.927 69.8058 265.832C70.0213 265.734 70.2013 265.594 70.346 265.412C70.4937 265.23 70.5968 265.012 70.6553 264.756H71.9987C71.9494 265.215 71.8002 265.624 71.5509 265.984C71.3016 266.344 70.9677 266.628 70.5491 266.834C70.1336 267.04 69.6458 267.143 69.0857 267.143ZM75.5384 267.157C75.089 267.157 74.6828 267.074 74.3196 266.908C73.9564 266.738 73.6687 266.494 73.4563 266.174C73.247 265.854 73.1424 265.461 73.1424 264.996C73.1424 264.596 73.2193 264.267 73.3732 264.009C73.5271 263.75 73.7348 263.545 73.9964 263.395C74.258 263.244 74.5504 263.13 74.8736 263.053C75.1967 262.976 75.526 262.917 75.8615 262.877C76.2862 262.828 76.6309 262.788 76.8956 262.757C77.1603 262.724 77.3526 262.67 77.4727 262.596C77.5927 262.522 77.6527 262.402 77.6527 262.236V262.203C77.6527 261.8 77.5388 261.488 77.3111 261.266C77.0864 261.045 76.7509 260.934 76.3047 260.934C75.84 260.934 75.4737 261.037 75.206 261.243C74.9413 261.446 74.7582 261.673 74.6566 261.922L73.3594 261.626C73.5133 261.196 73.7379 260.848 74.0334 260.583C74.3319 260.315 74.6751 260.121 75.0629 260.001C75.4506 259.878 75.8584 259.817 76.2862 259.817C76.5694 259.817 76.8694 259.851 77.1864 259.918C77.5065 259.983 77.805 260.103 78.082 260.278C78.3621 260.454 78.5914 260.705 78.7699 261.031C78.9484 261.354 79.0376 261.774 79.0376 262.291V267H77.6896V266.031H77.6342C77.545 266.209 77.4111 266.384 77.2326 266.557C77.0541 266.729 76.8248 266.872 76.5447 266.986C76.2647 267.1 75.9292 267.157 75.5384 267.157ZM75.8384 266.049C76.2201 266.049 76.5463 265.974 76.8171 265.823C77.091 265.672 77.2988 265.475 77.4403 265.232C77.585 264.986 77.6573 264.723 77.6573 264.442V263.528C77.6081 263.578 77.5127 263.624 77.3711 263.667C77.2326 263.707 77.0741 263.742 76.8956 263.773C76.7171 263.801 76.5432 263.827 76.3739 263.852C76.2047 263.873 76.0631 263.892 75.9492 263.907C75.6815 263.941 75.4368 263.998 75.2152 264.078C74.9967 264.158 74.8213 264.273 74.6889 264.424C74.5597 264.572 74.495 264.769 74.495 265.015C74.495 265.357 74.6212 265.615 74.8736 265.79C75.1259 265.963 75.4476 266.049 75.8384 266.049ZM80.8762 267V259.909H82.2565V267H80.8762ZM81.5732 258.815C81.3332 258.815 81.127 258.735 80.9546 258.575C80.7854 258.412 80.7007 258.218 80.7007 257.993C80.7007 257.766 80.7854 257.572 80.9546 257.412C81.127 257.248 81.3332 257.167 81.5732 257.167C81.8133 257.167 82.018 257.248 82.1872 257.412C82.3596 257.572 82.4458 257.766 82.4458 257.993C82.4458 258.218 82.3596 258.412 82.1872 258.575C82.018 258.735 81.8133 258.815 81.5732 258.815ZM89.427 261.64L88.176 261.862C88.1236 261.702 88.0405 261.549 87.9267 261.405C87.8159 261.26 87.6651 261.142 87.4743 261.049C87.2834 260.957 87.0449 260.911 86.7587 260.911C86.3678 260.911 86.0416 260.999 85.78 261.174C85.5184 261.346 85.3876 261.569 85.3876 261.843C85.3876 262.08 85.4753 262.271 85.6507 262.416C85.8262 262.56 86.1093 262.679 86.5002 262.771L87.6266 263.03C88.2791 263.181 88.7653 263.413 89.0854 263.727C89.4055 264.041 89.5655 264.449 89.5655 264.95C89.5655 265.375 89.4424 265.754 89.1962 266.086C88.9531 266.415 88.613 266.674 88.176 266.862C87.742 267.049 87.2388 267.143 86.6664 267.143C85.8723 267.143 85.2245 266.974 84.7228 266.635C84.2212 266.294 83.9134 265.809 83.7995 265.181L85.1337 264.978C85.2168 265.326 85.3876 265.589 85.6461 265.767C85.9047 265.943 86.2417 266.031 86.6571 266.031C87.1096 266.031 87.4712 265.937 87.742 265.749C88.0128 265.558 88.1483 265.326 88.1483 265.052C88.1483 264.83 88.0652 264.644 87.899 264.493C87.7359 264.342 87.485 264.229 87.1465 264.152L85.9462 263.888C85.2845 263.738 84.7952 263.498 84.4782 263.168C84.1642 262.839 84.0073 262.422 84.0073 261.917C84.0073 261.499 84.1242 261.132 84.3581 260.819C84.592 260.505 84.9152 260.26 85.3276 260.085C85.74 259.906 86.2124 259.817 86.7449 259.817C87.5112 259.817 88.1144 259.983 88.5545 260.315C88.9946 260.645 89.2855 261.086 89.427 261.64ZM94.5236 269.659V259.909H95.8716V261.059H95.987C96.0671 260.911 96.1825 260.74 96.3333 260.546C96.4841 260.352 96.6934 260.183 96.9611 260.038C97.2289 259.891 97.5828 259.817 98.0229 259.817C98.5953 259.817 99.1062 259.961 99.5556 260.251C100.005 260.54 100.357 260.957 100.613 261.502C100.871 262.047 101.001 262.702 101.001 263.468C101.001 264.235 100.873 264.892 100.617 265.44C100.362 265.984 100.011 266.404 99.5648 266.7C99.1185 266.992 98.6092 267.138 98.0368 267.138C97.6059 267.138 97.2535 267.066 96.9796 266.922C96.7087 266.777 96.4964 266.608 96.3425 266.414C96.1886 266.22 96.0701 266.047 95.987 265.897H95.9039V269.659H94.5236ZM95.8762 263.455C95.8762 263.953 95.9486 264.39 96.0932 264.766C96.2379 265.141 96.4471 265.435 96.7211 265.647C96.995 265.857 97.3304 265.961 97.7275 265.961C98.1399 265.961 98.4846 265.852 98.7615 265.634C99.0385 265.412 99.2478 265.112 99.3894 264.733C99.534 264.355 99.6064 263.929 99.6064 263.455C99.6064 262.987 99.5356 262.567 99.394 262.194C99.2555 261.822 99.0462 261.528 98.7662 261.312C98.4892 261.097 98.1429 260.989 97.7275 260.989C97.3274 260.989 96.9888 261.092 96.7118 261.299C96.4379 261.505 96.2302 261.793 96.0886 262.162C95.947 262.531 95.8762 262.962 95.8762 263.455ZM102.547 267V259.909H103.881V261.036H103.955C104.084 260.654 104.312 260.354 104.638 260.135C104.968 259.914 105.34 259.803 105.756 259.803C105.842 259.803 105.943 259.806 106.06 259.812C106.18 259.818 106.274 259.826 106.342 259.835V261.156C106.286 261.14 106.188 261.123 106.046 261.105C105.905 261.083 105.763 261.072 105.622 261.072C105.295 261.072 105.005 261.142 104.749 261.28C104.497 261.416 104.297 261.605 104.149 261.848C104.001 262.088 103.927 262.362 103.927 262.67V267H102.547ZM110.269 267.143C109.604 267.143 109.024 266.991 108.529 266.686C108.033 266.381 107.649 265.955 107.375 265.407C107.101 264.859 106.964 264.219 106.964 263.487C106.964 262.751 107.101 262.108 107.375 261.557C107.649 261.006 108.033 260.578 108.529 260.274C109.024 259.969 109.604 259.817 110.269 259.817C110.934 259.817 111.514 259.969 112.01 260.274C112.505 260.578 112.89 261.006 113.164 261.557C113.438 262.108 113.575 262.751 113.575 263.487C113.575 264.219 113.438 264.859 113.164 265.407C112.89 265.955 112.505 266.381 112.01 266.686C111.514 266.991 110.934 267.143 110.269 267.143ZM110.274 265.984C110.705 265.984 111.062 265.871 111.345 265.643C111.628 265.415 111.837 265.112 111.973 264.733C112.111 264.355 112.18 263.938 112.18 263.482C112.18 263.03 112.111 262.614 111.973 262.236C111.837 261.854 111.628 261.548 111.345 261.317C111.062 261.086 110.705 260.971 110.274 260.971C109.84 260.971 109.48 261.086 109.194 261.317C108.91 261.548 108.7 261.854 108.561 262.236C108.426 262.614 108.358 263.03 108.358 263.482C108.358 263.938 108.426 264.355 108.561 264.733C108.7 265.112 108.91 265.415 109.194 265.643C109.48 265.871 109.84 265.984 110.274 265.984ZM109.701 258.963L110.782 256.835H112.236L110.805 258.963H109.701ZM115.926 259.909L117.491 262.67L119.069 259.909H120.579L118.368 263.455L120.597 267H119.088L117.491 264.35L115.898 267H114.384L116.59 263.455L114.411 259.909H115.926ZM121.996 267V259.909H123.377V267H121.996ZM122.693 258.815C122.453 258.815 122.247 258.735 122.075 258.575C121.905 258.412 121.821 258.218 121.821 257.993C121.821 257.766 121.905 257.572 122.075 257.412C122.247 257.248 122.453 257.167 122.693 257.167C122.933 257.167 123.138 257.248 123.307 257.412C123.48 257.572 123.566 257.766 123.566 257.993C123.566 258.218 123.48 258.412 123.307 258.575C123.138 258.735 122.933 258.815 122.693 258.815ZM125.234 267V259.909H126.559V261.063H126.646C126.794 260.672 127.036 260.368 127.371 260.149C127.706 259.928 128.108 259.817 128.576 259.817C129.05 259.817 129.447 259.928 129.767 260.149C130.09 260.371 130.329 260.675 130.483 261.063H130.556C130.726 260.685 130.995 260.383 131.364 260.158C131.734 259.931 132.174 259.817 132.685 259.817C133.328 259.817 133.853 260.018 134.259 260.422C134.668 260.825 134.873 261.433 134.873 262.245V267H133.492V262.374C133.492 261.894 133.362 261.546 133.1 261.331C132.838 261.116 132.526 261.008 132.163 261.008C131.714 261.008 131.364 261.146 131.115 261.423C130.866 261.697 130.741 262.05 130.741 262.48V267H129.365V262.287C129.365 261.902 129.245 261.593 129.005 261.359C128.765 261.125 128.453 261.008 128.068 261.008C127.806 261.008 127.565 261.077 127.343 261.216C127.125 261.351 126.948 261.54 126.812 261.783C126.68 262.027 126.614 262.308 126.614 262.628V267H125.234ZM139.71 267.143C139.045 267.143 138.465 266.991 137.969 266.686C137.474 266.381 137.089 265.955 136.815 265.407C136.541 264.859 136.404 264.219 136.404 263.487C136.404 262.751 136.541 262.108 136.815 261.557C137.089 261.006 137.474 260.578 137.969 260.274C138.465 259.969 139.045 259.817 139.71 259.817C140.374 259.817 140.955 259.969 141.45 260.274C141.946 260.578 142.33 261.006 142.604 261.557C142.878 262.108 143.015 262.751 143.015 263.487C143.015 264.219 142.878 264.859 142.604 265.407C142.33 265.955 141.946 266.381 141.45 266.686C140.955 266.991 140.374 267.143 139.71 267.143ZM139.714 265.984C140.145 265.984 140.502 265.871 140.785 265.643C141.068 265.415 141.278 265.112 141.413 264.733C141.552 264.355 141.621 263.938 141.621 263.482C141.621 263.03 141.552 262.614 141.413 262.236C141.278 261.854 141.068 261.548 140.785 261.317C140.502 261.086 140.145 260.971 139.714 260.971C139.28 260.971 138.92 261.086 138.634 261.317C138.351 261.548 138.14 261.854 138.002 262.236C137.866 262.614 137.798 263.03 137.798 263.482C137.798 263.938 137.866 264.355 138.002 264.733C138.14 265.112 138.351 265.415 138.634 265.643C138.92 265.871 139.28 265.984 139.714 265.984ZM149.869 261.64L148.618 261.862C148.566 261.702 148.483 261.549 148.369 261.405C148.258 261.26 148.107 261.142 147.917 261.049C147.726 260.957 147.487 260.911 147.201 260.911C146.81 260.911 146.484 260.999 146.222 261.174C145.961 261.346 145.83 261.569 145.83 261.843C145.83 262.08 145.918 262.271 146.093 262.416C146.269 262.56 146.552 262.679 146.943 262.771L148.069 263.03C148.721 263.181 149.208 263.413 149.528 263.727C149.848 264.041 150.008 264.449 150.008 264.95C150.008 265.375 149.885 265.754 149.639 266.086C149.395 266.415 149.055 266.674 148.618 266.862C148.184 267.049 147.681 267.143 147.109 267.143C146.315 267.143 145.667 266.974 145.165 266.635C144.664 266.294 144.356 265.809 144.242 265.181L145.576 264.978C145.659 265.326 145.83 265.589 146.089 265.767C146.347 265.943 146.684 266.031 147.1 266.031C147.552 266.031 147.914 265.937 148.184 265.749C148.455 265.558 148.591 265.326 148.591 265.052C148.591 264.83 148.508 264.644 148.341 264.493C148.178 264.342 147.927 264.229 147.589 264.152L146.389 263.888C145.727 263.738 145.238 263.498 144.921 263.168C144.607 262.839 144.45 262.422 144.45 261.917C144.45 261.499 144.567 261.132 144.801 260.819C145.034 260.505 145.358 260.26 145.77 260.085C146.182 259.906 146.655 259.817 147.187 259.817C147.954 259.817 148.557 259.983 148.997 260.315C149.437 260.645 149.728 261.086 149.869 261.64Z" fill="white"/>
<rect x="50" y="280" width="56" height="77" rx="10" fill="white"/>
<rect x="120" y="280" width="56" height="77" rx="10" fill="white"/>
<rect x="190" y="280" width="56" height="77" rx="10" fill="white"/>
<rect x="260" y="280" width="56" height="77" rx="10" fill="white"/>
<path d="M51.0387 399V389.545H52.4652V397.772H56.7493V399H51.0387ZM61.2527 399.143C60.5879 399.143 60.0078 398.991 59.5123 398.686C59.0167 398.381 58.632 397.955 58.3581 397.407C58.0842 396.859 57.9473 396.219 57.9473 395.487C57.9473 394.751 58.0842 394.108 58.3581 393.557C58.632 393.006 59.0167 392.578 59.5123 392.274C60.0078 391.969 60.5879 391.817 61.2527 391.817C61.9174 391.817 62.4976 391.969 62.9931 392.274C63.4886 392.578 63.8733 393.006 64.1472 393.557C64.4211 394.108 64.5581 394.751 64.5581 395.487C64.5581 396.219 64.4211 396.859 64.1472 397.407C63.8733 397.955 63.4886 398.381 62.9931 398.686C62.4976 398.991 61.9174 399.143 61.2527 399.143ZM61.2573 397.984C61.6882 397.984 62.0452 397.871 62.3283 397.643C62.6114 397.415 62.8207 397.112 62.9561 396.733C63.0946 396.355 63.1639 395.938 63.1639 395.482C63.1639 395.03 63.0946 394.614 62.9561 394.236C62.8207 393.854 62.6114 393.548 62.3283 393.317C62.0452 393.086 61.6882 392.971 61.2573 392.971C60.8233 392.971 60.4632 393.086 60.177 393.317C59.8939 393.548 59.6831 393.854 59.5446 394.236C59.4092 394.614 59.3414 395.03 59.3414 395.482C59.3414 395.938 59.4092 396.355 59.5446 396.733C59.6831 397.112 59.8939 397.415 60.177 397.643C60.4632 397.871 60.8233 397.984 61.2573 397.984ZM69.0857 399.143C68.3994 399.143 67.8084 398.988 67.3129 398.677C66.8205 398.363 66.442 397.931 66.1773 397.38C65.9126 396.829 65.7803 396.198 65.7803 395.487C65.7803 394.767 65.9157 394.131 66.1865 393.58C66.4574 393.026 66.839 392.594 67.3314 392.283C67.8238 391.972 68.404 391.817 69.0718 391.817C69.6104 391.817 70.0905 391.917 70.5122 392.117C70.9338 392.314 71.2739 392.591 71.5324 392.948C71.794 393.305 71.9494 393.722 71.9987 394.199H70.6553C70.5814 393.866 70.4121 393.58 70.1475 393.34C69.8859 393.1 69.535 392.98 69.0949 392.98C68.7102 392.98 68.3732 393.082 68.0839 393.285C67.7977 393.485 67.5745 393.771 67.4145 394.143C67.2545 394.513 67.1744 394.95 67.1744 395.455C67.1744 395.972 67.2529 396.418 67.4099 396.793C67.5669 397.169 67.7884 397.46 68.0747 397.666C68.364 397.872 68.704 397.975 69.0949 397.975C69.3565 397.975 69.5935 397.927 69.8058 397.832C70.0213 397.734 70.2013 397.594 70.346 397.412C70.4937 397.23 70.5968 397.012 70.6553 396.756H71.9987C71.9494 397.215 71.8002 397.624 71.5509 397.984C71.3016 398.344 70.9677 398.628 70.5491 398.834C70.1336 399.04 69.6458 399.143 69.0857 399.143ZM75.5384 399.157C75.089 399.157 74.6828 399.074 74.3196 398.908C73.9564 398.738 73.6687 398.494 73.4563 398.174C73.247 397.854 73.1424 397.461 73.1424 396.996C73.1424 396.596 73.2193 396.267 73.3732 396.009C73.5271 395.75 73.7348 395.545 73.9964 395.395C74.258 395.244 74.5504 395.13 74.8736 395.053C75.1967 394.976 75.526 394.917 75.8615 394.877C76.2862 394.828 76.6309 394.788 76.8956 394.757C77.1603 394.724 77.3526 394.67 77.4727 394.596C77.5927 394.522 77.6527 394.402 77.6527 394.236V394.203C77.6527 393.8 77.5388 393.488 77.3111 393.266C77.0864 393.045 76.7509 392.934 76.3047 392.934C75.84 392.934 75.4737 393.037 75.206 393.243C74.9413 393.446 74.7582 393.673 74.6566 393.922L73.3594 393.626C73.5133 393.196 73.7379 392.848 74.0334 392.583C74.3319 392.315 74.6751 392.121 75.0629 392.001C75.4506 391.878 75.8584 391.817 76.2862 391.817C76.5694 391.817 76.8694 391.851 77.1864 391.918C77.5065 391.983 77.805 392.103 78.082 392.278C78.3621 392.454 78.5914 392.705 78.7699 393.031C78.9484 393.354 79.0376 393.774 79.0376 394.291V399H77.6896V398.031H77.6342C77.545 398.209 77.4111 398.384 77.2326 398.557C77.0541 398.729 76.8248 398.872 76.5447 398.986C76.2647 399.1 75.9292 399.157 75.5384 399.157ZM75.8384 398.049C76.2201 398.049 76.5463 397.974 76.8171 397.823C77.091 397.672 77.2988 397.475 77.4403 397.232C77.585 396.986 77.6573 396.723 77.6573 396.442V395.528C77.6081 395.578 77.5127 395.624 77.3711 395.667C77.2326 395.707 77.0741 395.742 76.8956 395.773C76.7171 395.801 76.5432 395.827 76.3739 395.852C76.2047 395.873 76.0631 395.892 75.9492 395.907C75.6815 395.941 75.4368 395.998 75.2152 396.078C74.9967 396.158 74.8213 396.273 74.6889 396.424C74.5597 396.572 74.495 396.769 74.495 397.015C74.495 397.357 74.6212 397.615 74.8736 397.79C75.1259 397.963 75.4476 398.049 75.8384 398.049ZM80.8762 399V391.909H82.2565V399H80.8762ZM81.5732 390.815C81.3332 390.815 81.127 390.735 80.9546 390.575C80.7854 390.412 80.7007 390.218 80.7007 389.993C80.7007 389.766 80.7854 389.572 80.9546 389.412C81.127 389.248 81.3332 389.167 81.5732 389.167C81.8133 389.167 82.018 389.248 82.1872 389.412C82.3596 389.572 82.4458 389.766 82.4458 389.993C82.4458 390.218 82.3596 390.412 82.1872 390.575C82.018 390.735 81.8133 390.815 81.5732 390.815ZM89.427 393.64L88.176 393.862C88.1236 393.702 88.0405 393.549 87.9267 393.405C87.8159 393.26 87.6651 393.142 87.4743 393.049C87.2834 392.957 87.0449 392.911 86.7587 392.911C86.3678 392.911 86.0416 392.999 85.78 393.174C85.5184 393.346 85.3876 393.569 85.3876 393.843C85.3876 394.08 85.4753 394.271 85.6507 394.416C85.8262 394.56 86.1093 394.679 86.5002 394.771L87.6266 395.03C88.2791 395.181 88.7653 395.413 89.0854 395.727C89.4055 396.041 89.5655 396.449 89.5655 396.95C89.5655 397.375 89.4424 397.754 89.1962 398.086C88.9531 398.415 88.613 398.674 88.176 398.862C87.742 399.049 87.2388 399.143 86.6664 399.143C85.8723 399.143 85.2245 398.974 84.7228 398.635C84.2212 398.294 83.9134 397.809 83.7995 397.181L85.1337 396.978C85.2168 397.326 85.3876 397.589 85.6461 397.767C85.9047 397.943 86.2417 398.031 86.6571 398.031C87.1096 398.031 87.4712 397.937 87.742 397.749C88.0128 397.558 88.1483 397.326 88.1483 397.052C88.1483 396.83 88.0652 396.644 87.899 396.493C87.7359 396.342 87.485 396.229 87.1465 396.152L85.9462 395.888C85.2845 395.738 84.7952 395.498 84.4782 395.168C84.1642 394.839 84.0073 394.422 84.0073 393.917C84.0073 393.499 84.1242 393.132 84.3581 392.819C84.592 392.505 84.9152 392.26 85.3276 392.085C85.74 391.906 86.2124 391.817 86.7449 391.817C87.5112 391.817 88.1144 391.983 88.5545 392.315C88.9946 392.645 89.2855 393.086 89.427 393.64ZM100.59 391.909L98.0183 399H96.541L93.965 391.909H95.4469L97.2427 397.366H97.3166L99.1078 391.909H100.59ZM101.887 399V391.909H103.267V399H101.887ZM102.584 390.815C102.344 390.815 102.138 390.735 101.965 390.575C101.796 390.412 101.711 390.218 101.711 389.993C101.711 389.766 101.796 389.572 101.965 389.412C102.138 389.248 102.344 389.167 102.584 389.167C102.824 389.167 103.029 389.248 103.198 389.412C103.37 389.572 103.456 389.766 103.456 389.993C103.456 390.218 103.37 390.412 103.198 390.575C103.029 390.735 102.824 390.815 102.584 390.815ZM110.438 393.64L109.187 393.862C109.134 393.702 109.051 393.549 108.937 393.405C108.827 393.26 108.676 393.142 108.485 393.049C108.294 392.957 108.056 392.911 107.769 392.911C107.379 392.911 107.052 392.999 106.791 393.174C106.529 393.346 106.398 393.569 106.398 393.843C106.398 394.08 106.486 394.271 106.661 394.416C106.837 394.56 107.12 394.679 107.511 394.771L108.637 395.03C109.29 395.181 109.776 395.413 110.096 395.727C110.416 396.041 110.576 396.449 110.576 396.95C110.576 397.375 110.453 397.754 110.207 398.086C109.964 398.415 109.624 398.674 109.187 398.862C108.753 399.049 108.25 399.143 107.677 399.143C106.883 399.143 106.235 398.974 105.734 398.635C105.232 398.294 104.924 397.809 104.81 397.181L106.144 396.978C106.228 397.326 106.398 397.589 106.657 397.767C106.915 397.943 107.252 398.031 107.668 398.031C108.12 398.031 108.482 397.937 108.753 397.749C109.024 397.558 109.159 397.326 109.159 397.052C109.159 396.83 109.076 396.644 108.91 396.493C108.747 396.342 108.496 396.229 108.157 396.152L106.957 395.888C106.295 395.738 105.806 395.498 105.489 395.168C105.175 394.839 105.018 394.422 105.018 393.917C105.018 393.499 105.135 393.132 105.369 392.819C105.603 392.505 105.926 392.26 106.338 392.085C106.751 391.906 107.223 391.817 107.756 391.817C108.522 391.817 109.125 391.983 109.565 392.315C110.005 392.645 110.296 393.086 110.438 393.64ZM112.094 399V391.909H113.474V399H112.094ZM112.791 390.815C112.551 390.815 112.345 390.735 112.172 390.575C112.003 390.412 111.919 390.218 111.919 389.993C111.919 389.766 112.003 389.572 112.172 389.412C112.345 389.248 112.551 389.167 112.791 389.167C113.031 389.167 113.236 389.248 113.405 389.412C113.577 389.572 113.664 389.766 113.664 389.993C113.664 390.218 113.577 390.412 113.405 390.575C113.236 390.735 113.031 390.815 112.791 390.815ZM118.641 391.909V393.017H114.768V391.909H118.641ZM115.807 390.21H117.187V396.918C117.187 397.186 117.227 397.387 117.307 397.523C117.387 397.655 117.49 397.746 117.616 397.795C117.746 397.841 117.886 397.864 118.036 397.864C118.147 397.864 118.244 397.857 118.327 397.841C118.41 397.826 118.475 397.814 118.521 397.804L118.771 398.945C118.69 398.975 118.577 399.006 118.429 399.037C118.281 399.071 118.097 399.089 117.875 399.092C117.512 399.098 117.173 399.034 116.859 398.898C116.545 398.763 116.291 398.554 116.098 398.271C115.904 397.987 115.807 397.632 115.807 397.204V390.21ZM122.232 399.157C121.782 399.157 121.376 399.074 121.013 398.908C120.65 398.738 120.362 398.494 120.15 398.174C119.94 397.854 119.836 397.461 119.836 396.996C119.836 396.596 119.913 396.267 120.067 396.009C120.22 395.75 120.428 395.545 120.69 395.395C120.951 395.244 121.244 395.13 121.567 395.053C121.89 394.976 122.219 394.917 122.555 394.877C122.98 394.828 123.324 394.788 123.589 394.757C123.854 394.724 124.046 394.67 124.166 394.596C124.286 394.522 124.346 394.402 124.346 394.236V394.203C124.346 393.8 124.232 393.488 124.004 393.266C123.78 393.045 123.444 392.934 122.998 392.934C122.533 392.934 122.167 393.037 121.899 393.243C121.635 393.446 121.452 393.673 121.35 393.922L120.053 393.626C120.207 393.196 120.431 392.848 120.727 392.583C121.025 392.315 121.368 392.121 121.756 392.001C122.144 391.878 122.552 391.817 122.98 391.817C123.263 391.817 123.563 391.851 123.88 391.918C124.2 391.983 124.498 392.103 124.775 392.278C125.055 392.454 125.285 392.705 125.463 393.031C125.642 393.354 125.731 393.774 125.731 394.291V399H124.383V398.031H124.328C124.238 398.209 124.104 398.384 123.926 398.557C123.747 398.729 123.518 398.872 123.238 398.986C122.958 399.1 122.623 399.157 122.232 399.157ZM122.532 398.049C122.913 398.049 123.24 397.974 123.51 397.823C123.784 397.672 123.992 397.475 124.134 397.232C124.278 396.986 124.351 396.723 124.351 396.442V395.528C124.301 395.578 124.206 395.624 124.064 395.667C123.926 395.707 123.767 395.742 123.589 395.773C123.41 395.801 123.237 395.827 123.067 395.852C122.898 395.873 122.756 395.892 122.643 395.907C122.375 395.941 122.13 395.998 121.909 396.078C121.69 396.158 121.515 396.273 121.382 396.424C121.253 396.572 121.188 396.769 121.188 397.015C121.188 397.357 121.315 397.615 121.567 397.79C121.819 397.963 122.141 398.049 122.532 398.049ZM130.224 399.138C129.652 399.138 129.141 398.992 128.691 398.7C128.245 398.404 127.894 397.984 127.639 397.44C127.386 396.892 127.26 396.235 127.26 395.468C127.26 394.702 127.388 394.047 127.643 393.502C127.902 392.957 128.256 392.54 128.705 392.251C129.155 391.961 129.664 391.817 130.233 391.817C130.673 391.817 131.027 391.891 131.295 392.038C131.566 392.183 131.775 392.352 131.923 392.546C132.074 392.74 132.191 392.911 132.274 393.059H132.357V389.545H133.737V399H132.389V397.897H132.274C132.191 398.047 132.071 398.22 131.914 398.414C131.76 398.608 131.547 398.777 131.277 398.922C131.006 399.066 130.655 399.138 130.224 399.138ZM130.529 397.961C130.926 397.961 131.261 397.857 131.535 397.647C131.812 397.435 132.021 397.141 132.163 396.766C132.308 396.39 132.38 395.953 132.38 395.455C132.38 394.962 132.309 394.531 132.168 394.162C132.026 393.793 131.818 393.505 131.544 393.299C131.27 393.092 130.932 392.989 130.529 392.989C130.113 392.989 129.767 393.097 129.49 393.312C129.213 393.528 129.004 393.822 128.862 394.194C128.724 394.567 128.654 394.987 128.654 395.455C128.654 395.929 128.725 396.355 128.867 396.733C129.008 397.112 129.218 397.412 129.495 397.634C129.775 397.852 130.119 397.961 130.529 397.961ZM138.694 399.143C138.029 399.143 137.449 398.991 136.954 398.686C136.458 398.381 136.073 397.955 135.8 397.407C135.526 396.859 135.389 396.219 135.389 395.487C135.389 394.751 135.526 394.108 135.8 393.557C136.073 393.006 136.458 392.578 136.954 392.274C137.449 391.969 138.029 391.817 138.694 391.817C139.359 391.817 139.939 391.969 140.434 392.274C140.93 392.578 141.315 393.006 141.589 393.557C141.863 394.108 141.999 394.751 141.999 395.487C141.999 396.219 141.863 396.859 141.589 397.407C141.315 397.955 140.93 398.381 140.434 398.686C139.939 398.991 139.359 399.143 138.694 399.143ZM138.699 397.984C139.13 397.984 139.487 397.871 139.77 397.643C140.053 397.415 140.262 397.112 140.398 396.733C140.536 396.355 140.605 395.938 140.605 395.482C140.605 395.03 140.536 394.614 140.398 394.236C140.262 393.854 140.053 393.548 139.77 393.317C139.487 393.086 139.13 392.971 138.699 392.971C138.265 392.971 137.905 393.086 137.618 393.317C137.335 393.548 137.124 393.854 136.986 394.236C136.851 394.614 136.783 395.03 136.783 395.482C136.783 395.938 136.851 396.355 136.986 396.733C137.124 397.112 137.335 397.415 137.618 397.643C137.905 397.871 138.265 397.984 138.699 397.984ZM148.854 393.64L147.603 393.862C147.55 393.702 147.467 393.549 147.353 393.405C147.243 393.26 147.092 393.142 146.901 393.049C146.71 392.957 146.472 392.911 146.185 392.911C145.795 392.911 145.468 392.999 145.207 393.174C144.945 393.346 144.814 393.569 144.814 393.843C144.814 394.08 144.902 394.271 145.078 394.416C145.253 394.56 145.536 394.679 145.927 394.771L147.053 395.03C147.706 395.181 148.192 395.413 148.512 395.727C148.832 396.041 148.992 396.449 148.992 396.95C148.992 397.375 148.869 397.754 148.623 398.086C148.38 398.415 148.04 398.674 147.603 398.862C147.169 399.049 146.666 399.143 146.093 399.143C145.299 399.143 144.651 398.974 144.15 398.635C143.648 398.294 143.34 397.809 143.226 397.181L144.56 396.978C144.644 397.326 144.814 397.589 145.073 397.767C145.331 397.943 145.668 398.031 146.084 398.031C146.536 398.031 146.898 397.937 147.169 397.749C147.44 397.558 147.575 397.326 147.575 397.052C147.575 396.83 147.492 396.644 147.326 396.493C147.163 396.342 146.912 396.229 146.573 396.152L145.373 395.888C144.711 395.738 144.222 395.498 143.905 395.168C143.591 394.839 143.434 394.422 143.434 393.917C143.434 393.499 143.551 393.132 143.785 392.819C144.019 392.505 144.342 392.26 144.754 392.085C145.167 391.906 145.639 391.817 146.172 391.817C146.938 391.817 147.541 391.983 147.981 392.315C148.421 392.645 148.712 393.086 148.854 393.64Z" fill="white"/>
<rect x="50" y="412" width="56" height="77" rx="10" fill="white"/>
<rect x="120" y="412" width="56" height="77" rx="10" fill="white"/>
<rect x="190" y="412" width="56" height="77" rx="10" fill="white"/>
<rect x="260" y="412" width="56" height="77" rx="10" fill="white"/>
</svg>
