<svg width="367" height="583" viewBox="0 0 367 583" fill="none" xmlns="http://www.w3.org/2000/svg">
<rect x="17" y="17" width="332" height="548" fill="#373737"/>
<path d="M312.656 0H53.9062C39.6094 0 25.8982 5.67939 15.7888 15.7888C5.67939 25.8982 0 39.6094 0 53.9062V528.281C0 542.578 5.67939 556.289 15.7888 566.399C25.8982 576.508 39.6094 582.188 53.9062 582.188H312.656C326.953 582.188 340.664 576.508 350.774 566.399C360.883 556.289 366.562 542.578 366.562 528.281V53.9062C366.562 39.6094 360.883 25.8982 350.774 15.7888C340.664 5.67939 326.953 0 312.656 0ZM345 528.281C345 536.859 341.592 545.086 335.527 551.152C329.461 557.217 321.234 560.625 312.656 560.625H53.9062C45.3282 560.625 37.1014 557.217 31.0358 551.152C24.9701 545.086 21.5625 536.859 21.5625 528.281V53.9062C21.5625 45.3282 24.9701 37.1014 31.0358 31.0358C37.1014 24.9701 45.3282 21.5625 53.9062 21.5625H312.656C321.234 21.5625 329.461 24.9701 335.527 31.0358C341.592 37.1014 345 45.3282 345 53.9062V528.281ZM204.844 107.812C204.844 112.077 203.579 116.246 201.21 119.792C198.841 123.338 195.473 126.102 191.533 127.734C187.593 129.366 183.257 129.793 179.075 128.961C174.892 128.129 171.05 126.075 168.034 123.059C165.019 120.044 162.965 116.202 162.133 112.019C161.301 107.836 161.728 103.501 163.36 99.5609C164.992 95.6209 167.756 92.2533 171.302 89.8839C174.848 87.5146 179.017 86.25 183.281 86.25C189 86.25 194.484 88.5218 198.528 92.5655C202.572 96.6093 204.844 102.094 204.844 107.812Z" fill="#F5821F"/>
<rect x="57" y="159" width="251" height="30" rx="15" fill="white"/>
<path d="M298.797 181.819L294.469 177.491C295.724 175.985 296.349 174.053 296.216 172.098C296.082 170.142 295.2 168.313 293.752 166.992C292.305 165.67 290.403 164.957 288.444 165.002C286.484 165.047 284.617 165.845 283.231 167.231C281.845 168.617 281.047 170.484 281.002 172.444C280.957 174.403 281.67 176.305 282.992 177.752C284.313 179.2 286.142 180.082 288.098 180.216C290.053 180.349 291.985 179.724 293.491 178.469L297.819 182.797C297.883 182.862 297.959 182.913 298.043 182.947C298.127 182.982 298.217 183 298.308 183C298.399 183 298.489 182.982 298.573 182.947C298.657 182.913 298.733 182.862 298.797 182.797C298.862 182.733 298.913 182.657 298.947 182.573C298.982 182.489 299 182.399 299 182.308C299 182.217 298.982 182.127 298.947 182.043C298.913 181.959 298.862 181.883 298.797 181.819ZM282.402 172.626C282.402 171.395 282.767 170.192 283.451 169.168C284.135 168.145 285.107 167.347 286.244 166.876C287.382 166.405 288.633 166.282 289.84 166.522C291.048 166.762 292.157 167.355 293.027 168.225C293.898 169.096 294.491 170.205 294.731 171.412C294.971 172.619 294.848 173.871 294.376 175.008C293.905 176.145 293.108 177.117 292.084 177.801C291.061 178.485 289.857 178.85 288.626 178.85C286.976 178.848 285.394 178.192 284.227 177.025C283.06 175.858 282.404 174.276 282.402 172.626Z" fill="#F5821F"/>
<rect x="57" y="282" width="110" height="110" rx="10" fill="white"/>
<rect x="198" y="282" width="110" height="110" rx="10" fill="white"/>
<rect x="57" y="416" width="110" height="110" rx="10" fill="white"/>
<rect x="198" y="416" width="110" height="110" rx="10" fill="white"/>
<path d="M64.0387 255V245.545H65.4652V253.772H69.7493V255H64.0387ZM74.2527 255.143C73.5879 255.143 73.0078 254.991 72.5123 254.686C72.0167 254.381 71.632 253.955 71.3581 253.407C71.0842 252.859 70.9473 252.219 70.9473 251.487C70.9473 250.751 71.0842 250.108 71.3581 249.557C71.632 249.006 72.0167 248.578 72.5123 248.274C73.0078 247.969 73.5879 247.817 74.2527 247.817C74.9174 247.817 75.4976 247.969 75.9931 248.274C76.4886 248.578 76.8733 249.006 77.1472 249.557C77.4211 250.108 77.5581 250.751 77.5581 251.487C77.5581 252.219 77.4211 252.859 77.1472 253.407C76.8733 253.955 76.4886 254.381 75.9931 254.686C75.4976 254.991 74.9174 255.143 74.2527 255.143ZM74.2573 253.984C74.6882 253.984 75.0452 253.871 75.3283 253.643C75.6114 253.415 75.8207 253.112 75.9561 252.733C76.0946 252.355 76.1639 251.938 76.1639 251.482C76.1639 251.03 76.0946 250.614 75.9561 250.236C75.8207 249.854 75.6114 249.548 75.3283 249.317C75.0452 249.086 74.6882 248.971 74.2573 248.971C73.8233 248.971 73.4632 249.086 73.177 249.317C72.8939 249.548 72.6831 249.854 72.5446 250.236C72.4092 250.614 72.3414 251.03 72.3414 251.482C72.3414 251.938 72.4092 252.355 72.5446 252.733C72.6831 253.112 72.8939 253.415 73.177 253.643C73.4632 253.871 73.8233 253.984 74.2573 253.984ZM79.0988 247.909H80.4791V255.462C80.4791 255.936 80.393 256.336 80.2206 256.662C80.0513 256.988 79.799 257.236 79.4635 257.405C79.1311 257.574 78.7203 257.659 78.2309 257.659C78.1817 257.659 78.1355 257.659 78.0924 257.659C78.0463 257.659 77.9985 257.658 77.9493 257.654V256.468C77.9924 256.468 78.0309 256.468 78.0647 256.468C78.0955 256.468 78.1309 256.468 78.1709 256.468C78.4971 256.468 78.7326 256.38 78.8772 256.205C79.0249 256.033 79.0988 255.782 79.0988 255.452V247.909ZM79.782 246.815C79.542 246.815 79.3358 246.735 79.1634 246.575C78.9942 246.412 78.9095 246.218 78.9095 245.993C78.9095 245.766 78.9942 245.572 79.1634 245.412C79.3358 245.248 79.542 245.167 79.782 245.167C80.0221 245.167 80.2268 245.248 80.396 245.412C80.5684 245.572 80.6546 245.766 80.6546 245.993C80.6546 246.218 80.5684 246.412 80.396 246.575C80.2268 246.735 80.0221 246.815 79.782 246.815ZM84.3997 255.157C83.9503 255.157 83.5441 255.074 83.1809 254.908C82.8178 254.738 82.53 254.494 82.3176 254.174C82.1084 253.854 82.0037 253.461 82.0037 252.996C82.0037 252.596 82.0807 252.267 82.2346 252.009C82.3884 251.75 82.5962 251.545 82.8578 251.395C83.1194 251.244 83.4118 251.13 83.7349 251.053C84.0581 250.976 84.3874 250.917 84.7228 250.877C85.1475 250.828 85.4922 250.788 85.7569 250.757C86.0216 250.724 86.214 250.67 86.334 250.596C86.454 250.522 86.514 250.402 86.514 250.236V250.203C86.514 249.8 86.4002 249.488 86.1724 249.266C85.9477 249.045 85.6123 248.934 85.166 248.934C84.7013 248.934 84.335 249.037 84.0673 249.243C83.8026 249.446 83.6195 249.673 83.5179 249.922L82.2207 249.626C82.3746 249.196 82.5993 248.848 82.8947 248.583C83.1932 248.315 83.5364 248.121 83.9242 248.001C84.312 247.878 84.7198 247.817 85.1475 247.817C85.4307 247.817 85.7308 247.851 86.0478 247.918C86.3678 247.983 86.6664 248.103 86.9434 248.278C87.2234 248.454 87.4527 248.705 87.6312 249.031C87.8097 249.354 87.899 249.774 87.899 250.291V255H86.551V254.031H86.4956C86.4063 254.209 86.2724 254.384 86.0939 254.557C85.9154 254.729 85.6861 254.872 85.4061 254.986C85.126 255.1 84.7905 255.157 84.3997 255.157ZM84.6998 254.049C85.0814 254.049 85.4076 253.974 85.6784 253.823C85.9524 253.672 86.1601 253.475 86.3017 253.232C86.4463 252.986 86.5186 252.723 86.5186 252.442V251.528C86.4694 251.578 86.374 251.624 86.2324 251.667C86.0939 251.707 85.9354 251.742 85.7569 251.773C85.5784 251.801 85.4045 251.827 85.2353 251.852C85.066 251.873 84.9244 251.892 84.8105 251.907C84.5428 251.941 84.2981 251.998 84.0765 252.078C83.858 252.158 83.6826 252.273 83.5502 252.424C83.421 252.572 83.3564 252.769 83.3564 253.015C83.3564 253.357 83.4825 253.615 83.7349 253.79C83.9873 253.963 84.3089 254.049 84.6998 254.049ZM95.051 249.64L93.8 249.862C93.7477 249.702 93.6646 249.549 93.5507 249.405C93.4399 249.26 93.2891 249.142 93.0983 249.049C92.9075 248.957 92.6689 248.911 92.3827 248.911C91.9919 248.911 91.6656 248.999 91.404 249.174C91.1424 249.346 91.0116 249.569 91.0116 249.843C91.0116 250.08 91.0993 250.271 91.2748 250.416C91.4502 250.56 91.7333 250.679 92.1242 250.771L93.2506 251.03C93.9031 251.181 94.3894 251.413 94.7094 251.727C95.0295 252.041 95.1895 252.449 95.1895 252.95C95.1895 253.375 95.0664 253.754 94.8202 254.086C94.5771 254.415 94.237 254.674 93.8 254.862C93.366 255.049 92.8628 255.143 92.2904 255.143C91.4964 255.143 90.8485 254.974 90.3469 254.635C89.8452 254.294 89.5374 253.809 89.4236 253.181L90.7577 252.978C90.8408 253.326 91.0116 253.589 91.2702 253.767C91.5287 253.943 91.8657 254.031 92.2812 254.031C92.7336 254.031 93.0952 253.937 93.366 253.749C93.6369 253.558 93.7723 253.326 93.7723 253.052C93.7723 252.83 93.6892 252.644 93.523 252.493C93.3599 252.342 93.109 252.229 92.7705 252.152L91.5702 251.888C90.9085 251.738 90.4192 251.498 90.1022 251.168C89.7883 250.839 89.6313 250.422 89.6313 249.917C89.6313 249.499 89.7483 249.132 89.9822 248.819C90.2161 248.505 90.5392 248.26 90.9516 248.085C91.364 247.906 91.8364 247.817 92.3689 247.817C93.1352 247.817 93.7384 247.983 94.1785 248.315C94.6186 248.645 94.9095 249.086 95.051 249.64Z" fill="#F5821F"/>
<path d="M116.039 255V245.545H119.409C120.144 245.545 120.754 245.679 121.237 245.947C121.72 246.215 122.082 246.581 122.322 247.046C122.562 247.507 122.682 248.028 122.682 248.606C122.682 249.188 122.56 249.711 122.317 250.176C122.077 250.637 121.714 251.004 121.228 251.275C120.744 251.542 120.137 251.676 119.404 251.676H117.087V250.467H119.275C119.74 250.467 120.117 250.387 120.406 250.227C120.695 250.063 120.908 249.842 121.043 249.562C121.178 249.282 121.246 248.963 121.246 248.606C121.246 248.249 121.178 247.932 121.043 247.655C120.908 247.378 120.694 247.161 120.401 247.004C120.112 246.847 119.73 246.769 119.256 246.769H117.465V255H116.039ZM124.243 255V247.909H125.578V249.036H125.651C125.781 248.654 126.008 248.354 126.335 248.135C126.664 247.914 127.036 247.803 127.452 247.803C127.538 247.803 127.64 247.806 127.756 247.812C127.877 247.818 127.97 247.826 128.038 247.835V249.156C127.983 249.14 127.884 249.123 127.743 249.105C127.601 249.083 127.459 249.072 127.318 249.072C126.992 249.072 126.701 249.142 126.445 249.28C126.193 249.416 125.993 249.605 125.845 249.848C125.698 250.088 125.624 250.362 125.624 250.67V255H124.243ZM131.966 255.143C131.301 255.143 130.721 254.991 130.225 254.686C129.73 254.381 129.345 253.955 129.071 253.407C128.797 252.859 128.66 252.219 128.66 251.487C128.66 250.751 128.797 250.108 129.071 249.557C129.345 249.006 129.73 248.578 130.225 248.274C130.721 247.969 131.301 247.817 131.966 247.817C132.63 247.817 133.21 247.969 133.706 248.274C134.201 248.578 134.586 249.006 134.86 249.557C135.134 250.108 135.271 250.751 135.271 251.487C135.271 252.219 135.134 252.859 134.86 253.407C134.586 253.955 134.201 254.381 133.706 254.686C133.21 254.991 132.63 255.143 131.966 255.143ZM131.97 253.984C132.401 253.984 132.758 253.871 133.041 253.643C133.324 253.415 133.534 253.112 133.669 252.733C133.808 252.355 133.877 251.938 133.877 251.482C133.877 251.03 133.808 250.614 133.669 250.236C133.534 249.854 133.324 249.548 133.041 249.317C132.758 249.086 132.401 248.971 131.97 248.971C131.536 248.971 131.176 249.086 130.89 249.317C130.607 249.548 130.396 249.854 130.257 250.236C130.122 250.614 130.054 251.03 130.054 251.482C130.054 251.938 130.122 252.355 130.257 252.733C130.396 253.112 130.607 253.415 130.89 253.643C131.176 253.871 131.536 253.984 131.97 253.984ZM139.466 255.138C138.894 255.138 138.383 254.992 137.934 254.7C137.487 254.404 137.136 253.984 136.881 253.44C136.629 252.892 136.502 252.235 136.502 251.468C136.502 250.702 136.63 250.047 136.886 249.502C137.144 248.957 137.498 248.54 137.947 248.251C138.397 247.961 138.906 247.817 139.475 247.817C139.916 247.817 140.269 247.891 140.537 248.038C140.808 248.183 141.017 248.352 141.165 248.546C141.316 248.74 141.433 248.911 141.516 249.059H141.599V245.545H142.979V255H141.631V253.897H141.516C141.433 254.047 141.313 254.22 141.156 254.414C141.002 254.608 140.79 254.777 140.519 254.922C140.248 255.066 139.897 255.138 139.466 255.138ZM139.771 253.961C140.168 253.961 140.503 253.857 140.777 253.647C141.054 253.435 141.264 253.141 141.405 252.766C141.55 252.39 141.622 251.953 141.622 251.455C141.622 250.962 141.551 250.531 141.41 250.162C141.268 249.793 141.06 249.505 140.786 249.299C140.513 249.092 140.174 248.989 139.771 248.989C139.355 248.989 139.009 249.097 138.732 249.312C138.455 249.528 138.246 249.822 138.104 250.194C137.966 250.567 137.897 250.987 137.897 251.455C137.897 251.929 137.967 252.355 138.109 252.733C138.251 253.112 138.46 253.412 138.737 253.634C139.017 253.852 139.362 253.961 139.771 253.961ZM149.441 252.059V247.909H150.826V255H149.469V253.772H149.395C149.232 254.151 148.97 254.466 148.61 254.718C148.253 254.968 147.809 255.092 147.276 255.092C146.821 255.092 146.417 254.992 146.067 254.792C145.719 254.589 145.445 254.289 145.245 253.892C145.048 253.495 144.949 253.004 144.949 252.419V247.909H146.33V252.253C146.33 252.736 146.464 253.121 146.731 253.407C146.999 253.694 147.347 253.837 147.775 253.837C148.033 253.837 148.29 253.772 148.546 253.643C148.804 253.513 149.018 253.318 149.187 253.056C149.36 252.795 149.444 252.462 149.441 252.059ZM155.991 247.909V249.017H152.118V247.909H155.991ZM153.156 246.21H154.537V252.918C154.537 253.186 154.577 253.387 154.657 253.523C154.737 253.655 154.84 253.746 154.966 253.795C155.095 253.841 155.235 253.864 155.386 253.864C155.497 253.864 155.594 253.857 155.677 253.841C155.76 253.826 155.825 253.814 155.871 253.804L156.12 254.945C156.04 254.975 155.926 255.006 155.778 255.037C155.631 255.071 155.446 255.089 155.225 255.092C154.861 255.098 154.523 255.034 154.209 254.898C153.895 254.763 153.641 254.554 153.447 254.271C153.253 253.987 153.156 253.632 153.156 253.204V246.21ZM160.428 255.143C159.764 255.143 159.184 254.991 158.688 254.686C158.193 254.381 157.808 253.955 157.534 253.407C157.26 252.859 157.123 252.219 157.123 251.487C157.123 250.751 157.26 250.108 157.534 249.557C157.808 249.006 158.193 248.578 158.688 248.274C159.184 247.969 159.764 247.817 160.428 247.817C161.093 247.817 161.673 247.969 162.169 248.274C162.664 248.578 163.049 249.006 163.323 249.557C163.597 250.108 163.734 250.751 163.734 251.487C163.734 252.219 163.597 252.859 163.323 253.407C163.049 253.955 162.664 254.381 162.169 254.686C161.673 254.991 161.093 255.143 160.428 255.143ZM160.433 253.984C160.864 253.984 161.221 253.871 161.504 253.643C161.787 253.415 161.997 253.112 162.132 252.733C162.27 252.355 162.34 251.938 162.34 251.482C162.34 251.03 162.27 250.614 162.132 250.236C161.997 249.854 161.787 249.548 161.504 249.317C161.221 249.086 160.864 248.971 160.433 248.971C159.999 248.971 159.639 249.086 159.353 249.317C159.07 249.548 158.859 249.854 158.72 250.236C158.585 250.614 158.517 251.03 158.517 251.482C158.517 251.938 158.585 252.355 158.72 252.733C158.859 253.112 159.07 253.415 159.353 253.643C159.639 253.871 159.999 253.984 160.433 253.984ZM170.588 249.64L169.337 249.862C169.285 249.702 169.202 249.549 169.088 249.405C168.977 249.26 168.826 249.142 168.635 249.049C168.445 248.957 168.206 248.911 167.92 248.911C167.529 248.911 167.203 248.999 166.941 249.174C166.68 249.346 166.549 249.569 166.549 249.843C166.549 250.08 166.636 250.271 166.812 250.416C166.987 250.56 167.27 250.679 167.661 250.771L168.788 251.03C169.44 251.181 169.926 251.413 170.247 251.727C170.567 252.041 170.727 252.449 170.727 252.95C170.727 253.375 170.604 253.754 170.357 254.086C170.114 254.415 169.774 254.674 169.337 254.862C168.903 255.049 168.4 255.143 167.828 255.143C167.033 255.143 166.386 254.974 165.884 254.635C165.382 254.294 165.075 253.809 164.961 253.181L166.295 252.978C166.378 253.326 166.549 253.589 166.807 253.767C167.066 253.943 167.403 254.031 167.818 254.031C168.271 254.031 168.632 253.937 168.903 253.749C169.174 253.558 169.309 253.326 169.309 253.052C169.309 252.83 169.226 252.644 169.06 252.493C168.897 252.342 168.646 252.229 168.308 252.152L167.107 251.888C166.446 251.738 165.956 251.498 165.639 251.168C165.325 250.839 165.168 250.422 165.168 249.917C165.168 249.499 165.285 249.132 165.519 248.819C165.753 248.505 166.076 248.26 166.489 248.085C166.901 247.906 167.374 247.817 167.906 247.817C168.672 247.817 169.276 247.983 169.716 248.315C170.156 248.645 170.447 249.086 170.588 249.64Z" fill="white"/>
<path d="M60.5 259.5H97.5" stroke="#F5821F" stroke-width="1.5" stroke-linecap="round"/>
</svg>
