<svg width="367" height="583" viewBox="0 0 367 583" fill="none" xmlns="http://www.w3.org/2000/svg">
<rect x="17" y="17" width="332" height="548" fill="#373737"/>
<path d="M312.656 0H53.9062C39.6094 0 25.8982 5.67939 15.7888 15.7888C5.67939 25.8982 0 39.6094 0 53.9062V528.281C0 542.578 5.67939 556.289 15.7888 566.399C25.8982 576.508 39.6094 582.188 53.9062 582.188H312.656C326.953 582.188 340.664 576.508 350.774 566.399C360.883 556.289 366.562 542.578 366.562 528.281V53.9062C366.562 39.6094 360.883 25.8982 350.774 15.7888C340.664 5.67939 326.953 0 312.656 0ZM345 528.281C345 536.859 341.592 545.086 335.527 551.152C329.461 557.217 321.234 560.625 312.656 560.625H53.9062C45.3282 560.625 37.1014 557.217 31.0358 551.152C24.9701 545.086 21.5625 536.859 21.5625 528.281V53.9062C21.5625 45.3282 24.9701 37.1014 31.0358 31.0358C37.1014 24.9701 45.3282 21.5625 53.9062 21.5625H312.656C321.234 21.5625 329.461 24.9701 335.527 31.0358C341.592 37.1014 345 45.3282 345 53.9062V528.281ZM204.844 107.812C204.844 112.077 203.579 116.246 201.21 119.792C198.841 123.338 195.473 126.102 191.533 127.734C187.593 129.366 183.257 129.793 179.075 128.961C174.892 128.129 171.05 126.075 168.034 123.059C165.019 120.044 162.965 116.202 162.133 112.019C161.301 107.836 161.728 103.501 163.36 99.5609C164.992 95.6209 167.756 92.2533 171.302 89.8839C174.848 87.5146 179.017 86.25 183.281 86.25C189 86.25 194.484 88.5218 198.528 92.5655C202.572 96.6093 204.844 102.094 204.844 107.812Z" fill="#F5821F"/>
<path d="M126.886 282.455V329H117.045V282.455H126.886ZM173.915 282.455V329H165.415L145.165 299.705H144.824V329H134.983V282.455H143.619L163.71 311.727H164.119V282.455H173.915ZM191.818 329.659C189.591 329.659 187.606 329.273 185.864 328.5C184.121 327.712 182.742 326.553 181.727 325.023C180.727 323.477 180.227 321.553 180.227 319.25C180.227 317.311 180.583 315.682 181.295 314.364C182.008 313.045 182.977 311.985 184.205 311.182C185.432 310.379 186.826 309.773 188.386 309.364C189.962 308.955 191.614 308.667 193.341 308.5C195.371 308.288 197.008 308.091 198.25 307.909C199.492 307.712 200.394 307.424 200.955 307.045C201.515 306.667 201.795 306.106 201.795 305.364V305.227C201.795 303.788 201.341 302.674 200.432 301.886C199.538 301.098 198.265 300.705 196.614 300.705C194.871 300.705 193.485 301.091 192.455 301.864C191.424 302.621 190.742 303.576 190.409 304.727L181.455 304C181.909 301.879 182.803 300.045 184.136 298.5C185.47 296.939 187.189 295.742 189.295 294.909C191.417 294.061 193.871 293.636 196.659 293.636C198.598 293.636 200.455 293.864 202.227 294.318C204.015 294.773 205.598 295.477 206.977 296.432C208.371 297.386 209.47 298.614 210.273 300.114C211.076 301.598 211.477 303.379 211.477 305.455V329H202.295V324.159H202.023C201.462 325.25 200.712 326.212 199.773 327.045C198.833 327.864 197.705 328.508 196.386 328.977C195.068 329.432 193.545 329.659 191.818 329.659ZM194.591 322.977C196.015 322.977 197.273 322.697 198.364 322.136C199.455 321.561 200.311 320.788 200.932 319.818C201.553 318.848 201.864 317.75 201.864 316.523V312.818C201.561 313.015 201.144 313.197 200.614 313.364C200.098 313.515 199.515 313.659 198.864 313.795C198.212 313.917 197.561 314.03 196.909 314.136C196.258 314.227 195.667 314.311 195.136 314.386C194 314.553 193.008 314.818 192.159 315.182C191.311 315.545 190.652 316.038 190.182 316.659C189.712 317.265 189.477 318.023 189.477 318.932C189.477 320.25 189.955 321.258 190.909 321.955C191.879 322.636 193.106 322.977 194.591 322.977ZM250.284 294.091L238.08 329H227.17L214.966 294.091H225.193L232.443 319.068H232.807L240.034 294.091H250.284Z" fill="white"/>
</svg>
