<svg width="367" height="583" viewBox="0 0 367 583" fill="none" xmlns="http://www.w3.org/2000/svg">
<rect x="17" y="17" width="332" height="548" fill="#373737"/>
<path d="M169.092 389.254C146.305 372.646 122.33 356.897 97.8382 342.448L96.6089 341.723V390.729H171.115L169.092 389.254ZM98.237 389.099V344.579C121.537 358.372 144.352 373.338 166.109 389.099L98.237 389.099ZM284.413 489.966C274.559 479.713 264.449 469.693 254.084 459.907C251.227 457.206 248.351 454.527 245.459 451.87C227.805 435.641 209.57 420.206 190.755 405.565L190.535 405.394H96.6089V491.347H285.74L284.413 489.966ZM98.237 489.718V407.023H189.978C208.12 421.147 225.771 436.06 242.931 451.764C245.91 454.489 248.87 457.236 251.809 460.005C262.083 469.668 272.116 479.572 281.91 489.718H98.237ZM284.413 489.966C274.559 479.713 264.449 469.693 254.084 459.907C251.227 457.206 248.351 454.527 245.459 451.87C227.805 435.641 209.57 420.206 190.755 405.565L190.535 405.394H96.6089V491.347H285.74L284.413 489.966ZM98.237 489.718V407.023H189.978C208.12 421.147 225.771 436.06 242.931 451.764C245.91 454.489 248.87 457.236 251.809 460.005C262.083 469.668 272.116 479.572 281.91 489.718H98.237ZM169.092 389.254C146.305 372.646 122.33 356.897 97.8382 342.448L96.6089 341.723V390.729H171.115L169.092 389.254ZM98.237 389.099V344.579C121.537 358.372 144.352 373.338 166.109 389.099L98.237 389.099ZM169.092 389.254C146.305 372.646 122.33 356.897 97.8382 342.448L96.6089 341.723V390.729H171.115L169.092 389.254ZM98.237 389.099V344.579C121.537 358.372 144.352 373.338 166.109 389.099L98.237 389.099ZM284.413 489.966C274.559 479.713 264.449 469.693 254.084 459.907C251.227 457.206 248.351 454.527 245.459 451.87C227.805 435.641 209.57 420.206 190.755 405.565L190.535 405.394H96.6089V491.347H285.74L284.413 489.966ZM98.237 489.718V407.023H189.978C208.12 421.147 225.771 436.06 242.931 451.764C245.91 454.489 248.87 457.236 251.809 460.005C262.083 469.668 272.116 479.572 281.91 489.718H98.237ZM16.0212 506.013V507.642H80.3269V531.269H16.0212V532.899H81.9551V506.013H16.0212ZM96.6089 547.564V564.074L98.2371 563.923V549.193H348.979V547.564L96.6089 547.564ZM348.979 507.642V506.013H96.6089V532.899H348.979V531.269H98.237V507.642L348.979 507.642ZM196.926 389.099C165.69 364.985 132.702 343.233 98.237 324.023V307.525L96.6088 307.676V324.302L97.8626 325.681C132.187 344.839 165.041 366.524 196.153 390.558L196.372 390.729H348.979V389.099L196.926 389.099ZM80.3269 389.099H16.0212V390.729H81.9551V309.036L80.3269 309.187L80.3269 389.099ZM348.979 405.394H214.82L216.574 406.836C233.092 420.438 249.311 434.864 265.229 450.114C267.492 452.281 269.747 454.466 271.994 456.669C283.18 467.606 294.147 478.901 304.896 490.553L306.238 491.347H348.979V489.718H306.341C295.709 478.181 284.846 466.979 273.753 456.111C271.534 453.935 269.308 451.775 267.073 449.629C251.499 434.675 235.593 420.473 219.354 407.023H348.979V405.394ZM16.0212 547.564V549.193H80.3269V565.585L81.9551 565.435V547.564H16.0212ZM16.0212 405.394V407.023H80.3269V489.718H16.0212V491.347H81.9551V405.394H16.0212ZM169.092 389.254C146.305 372.646 122.33 356.897 97.8382 342.448L96.6089 341.723V390.729H171.115L169.092 389.254ZM98.237 389.099V344.579C121.537 358.372 144.352 373.338 166.109 389.099L98.237 389.099ZM284.413 489.966C274.559 479.713 264.449 469.693 254.084 459.907C251.227 457.206 248.351 454.527 245.459 451.87C227.805 435.641 209.57 420.206 190.755 405.565L190.535 405.394H96.6089V491.347H285.74L284.413 489.966ZM98.237 489.718V407.023H189.978C208.12 421.147 225.771 436.06 242.931 451.764C245.91 454.489 248.87 457.236 251.809 460.005C262.083 469.668 272.116 479.572 281.91 489.718H98.237ZM169.092 389.254C146.305 372.646 122.33 356.897 97.8382 342.448L96.6089 341.723V390.729H171.115L169.092 389.254ZM98.237 389.099V344.579C121.537 358.372 144.352 373.338 166.109 389.099L98.237 389.099ZM284.413 489.966C274.559 479.713 264.449 469.693 254.084 459.907C251.227 457.206 248.351 454.527 245.459 451.87C227.805 435.641 209.57 420.206 190.755 405.565L190.535 405.394H96.6089V491.347H285.74L284.413 489.966ZM98.237 489.718V407.023H189.978C208.12 421.147 225.771 436.06 242.931 451.764C245.91 454.489 248.87 457.236 251.809 460.005C262.083 469.668 272.116 479.572 281.91 489.718H98.237Z" fill="#6D6D6D"/>
<path d="M195.908 309.746C218.695 326.354 242.67 342.103 267.162 356.552L268.391 357.277V308.271H193.885L195.908 309.746ZM266.763 309.901V354.421C243.463 340.628 220.648 325.662 198.891 309.901L266.763 309.901ZM80.5869 209.034C90.4415 219.287 100.551 229.307 110.916 239.093C113.773 241.794 116.649 244.473 119.541 247.13C137.195 263.359 155.43 278.794 174.245 293.435L174.465 293.606H268.391V207.653L79.2598 207.653L80.5869 209.034ZM266.763 209.282V291.977H175.022C156.88 277.853 139.229 262.94 122.069 247.236C119.09 244.511 116.13 241.764 113.191 238.995C102.917 229.332 92.8838 219.428 83.0901 209.282L266.763 209.282ZM80.5869 209.034C90.4415 219.287 100.551 229.307 110.916 239.093C113.773 241.794 116.649 244.473 119.541 247.13C137.195 263.359 155.43 278.794 174.245 293.435L174.465 293.606H268.391V207.653L79.2598 207.653L80.5869 209.034ZM266.763 209.282V291.977H175.022C156.88 277.853 139.229 262.94 122.069 247.236C119.09 244.511 116.13 241.764 113.191 238.995C102.917 229.332 92.8838 219.428 83.0901 209.282L266.763 209.282ZM195.908 309.746C218.695 326.354 242.67 342.103 267.162 356.552L268.391 357.277V308.271H193.885L195.908 309.746ZM266.763 309.901V354.421C243.463 340.628 220.648 325.662 198.891 309.901L266.763 309.901ZM195.908 309.746C218.695 326.354 242.67 342.103 267.162 356.552L268.391 357.277V308.271H193.885L195.908 309.746ZM266.763 309.901V354.421C243.463 340.628 220.648 325.662 198.891 309.901L266.763 309.901ZM80.5869 209.034C90.4415 219.287 100.551 229.307 110.916 239.093C113.773 241.794 116.649 244.473 119.541 247.13C137.195 263.359 155.43 278.794 174.245 293.435L174.465 293.606H268.391V207.653L79.2598 207.653L80.5869 209.034ZM266.763 209.282V291.977H175.022C156.88 277.853 139.229 262.94 122.069 247.236C119.09 244.511 116.13 241.764 113.191 238.995C102.917 229.332 92.8838 219.428 83.0901 209.282L266.763 209.282ZM348.979 192.987V191.358H284.673V167.731H348.979V166.101H283.045V192.987H348.979ZM268.391 151.436V134.926L266.763 135.077V149.807L16.0206 149.807V151.436L268.391 151.436ZM16.0206 191.358V192.987L268.391 192.987V166.101L16.0206 166.101V167.731L266.763 167.731V191.358L16.0206 191.358ZM168.074 309.901C199.31 334.015 232.298 355.767 266.763 374.977V391.475L268.391 391.324V374.698L267.137 373.319C232.813 354.161 199.959 332.476 168.847 308.442L168.628 308.271L16.0206 308.271V309.901L168.074 309.901ZM284.673 309.901H348.979V308.271H283.045V389.964L284.673 389.813L284.673 309.901ZM16.0206 293.606L150.18 293.606L148.426 292.164C131.908 278.562 115.689 264.136 99.771 248.886C97.5078 246.719 95.2527 244.534 93.0058 242.331C81.8202 231.394 70.8529 220.099 60.104 208.447L58.7617 207.653H16.0206V209.282H58.6591C69.2912 220.819 80.154 232.021 91.2475 242.889C93.4658 245.065 95.6923 247.225 97.927 249.371C113.501 264.325 129.407 278.527 145.646 291.977L16.0206 291.977V293.606ZM348.979 151.436V149.807H284.673V133.415L283.045 133.565V151.436H348.979ZM348.979 293.606V291.977H284.673V209.282H348.979V207.653H283.045V293.606H348.979ZM195.908 309.746C218.695 326.354 242.67 342.103 267.162 356.552L268.391 357.277V308.271H193.885L195.908 309.746ZM266.763 309.901V354.421C243.463 340.628 220.648 325.662 198.891 309.901L266.763 309.901ZM80.5869 209.034C90.4415 219.287 100.551 229.307 110.916 239.093C113.773 241.794 116.649 244.473 119.541 247.13C137.195 263.359 155.43 278.794 174.245 293.435L174.465 293.606H268.391V207.653L79.2598 207.653L80.5869 209.034ZM266.763 209.282V291.977H175.022C156.88 277.853 139.229 262.94 122.069 247.236C119.09 244.511 116.13 241.764 113.191 238.995C102.917 229.332 92.8838 219.428 83.0901 209.282L266.763 209.282ZM195.908 309.746C218.695 326.354 242.67 342.103 267.162 356.552L268.391 357.277V308.271H193.885L195.908 309.746ZM266.763 309.901V354.421C243.463 340.628 220.648 325.662 198.891 309.901L266.763 309.901ZM80.5869 209.034C90.4415 219.287 100.551 229.307 110.916 239.093C113.773 241.794 116.649 244.473 119.541 247.13C137.195 263.359 155.43 278.794 174.245 293.435L174.465 293.606H268.391V207.653L79.2598 207.653L80.5869 209.034ZM266.763 209.282V291.977H175.022C156.88 277.853 139.229 262.94 122.069 247.236C119.09 244.511 116.13 241.764 113.191 238.995C102.917 229.332 92.8838 219.428 83.0901 209.282L266.763 209.282Z" fill="#6D6D6D"/>
<rect x="82" y="297" width="17" height="11" fill="#373737"/>
<rect x="82" y="305" width="14" height="11" fill="#373737"/>
<rect x="269" y="385" width="14" height="11" fill="#373737"/>
<rect x="263" y="391" width="14" height="11" fill="#373737"/>
<path d="M147 213.375C147 221.314 132.5 239 132.5 239C132.5 239 118 221.314 118 213.375C118 209.563 119.528 205.906 122.247 203.21C124.966 200.515 128.654 199 132.5 199C136.346 199 140.034 200.515 142.753 203.21C145.472 205.906 147 209.563 147 213.375Z" fill="#F5821F"/>
<path d="M139 212.5C139 213.786 138.619 215.042 137.905 216.111C137.19 217.18 136.175 218.013 134.987 218.505C133.8 218.997 132.493 219.126 131.232 218.875C129.971 218.624 128.813 218.005 127.904 217.096C126.995 216.187 126.376 215.029 126.125 213.768C125.874 212.507 126.003 211.2 126.495 210.013C126.987 208.825 127.82 207.81 128.889 207.095C129.958 206.381 131.214 206 132.5 206C133.354 206 134.199 206.167 134.988 206.494C135.777 206.82 136.493 207.299 137.097 207.903C137.701 208.507 138.179 209.223 138.506 210.012C138.833 210.801 139 211.646 139 212.5Z" fill="white"/>
<path d="M132.5 249C134.433 249 136 247.209 136 245C136 242.791 134.433 241 132.5 241C130.567 241 129 242.791 129 245C129 247.209 130.567 249 132.5 249Z" fill="#F5821F"/>
<path d="M286.681 483.336C201.5 395.5 111 338 90.9999 333.5" stroke="#449DD1" stroke-width="2" stroke-dasharray="2 2"/>
<line x1="90" y1="334" x2="90" y2="300" stroke="#449DD1" stroke-width="2" stroke-dasharray="2 2"/>
<line x1="169" y1="301" x2="91" y2="301" stroke="#449DD1" stroke-width="2" stroke-dasharray="2 2"/>
<line x1="168.317" y1="300.731" x2="122.317" y2="257.731" stroke="#449DD1" stroke-width="2" stroke-dasharray="2 2"/>
<path d="M298.008 464.402C298.485 465.274 299.335 465.722 299.905 465.401C300.475 465.081 300.549 464.115 300.071 463.242C299.886 462.891 299.616 462.592 299.285 462.37L297.212 458.702L295.464 459.761L297.693 463.262C297.704 463.664 297.812 464.054 298.007 464.4L298.006 464.402L298.008 464.402Z" fill="#F3A3A6"/>
<path d="M296.977 462.913L291.545 455.711L284.925 450.907C284.203 450.382 283.769 449.571 283.735 448.679C283.702 447.786 284.073 446.946 284.755 446.373C285.868 445.436 287.509 445.484 288.573 446.483L295.515 453.008L295.526 453.018L299.168 461.963L296.979 462.913L296.977 462.913Z" fill="#F5821F"/>
<path d="M288.22 446.228L284.784 447.37V442.368H287.9L288.22 446.228Z" fill="#F3A3A6"/>
<path d="M285.209 443.752C287.099 443.752 288.632 442.201 288.632 440.289C288.632 438.376 287.099 436.825 285.209 436.825C283.318 436.825 281.786 438.376 281.786 440.289C281.786 442.201 283.318 443.752 285.209 443.752Z" fill="#F3A3A6"/>
<path d="M286.081 440.56L285.609 441.14L284.756 439.628C284.756 439.628 283.667 439.686 283.667 438.867C283.667 438.048 282.667 438.026 282.667 438.026C282.667 438.026 281.251 435.526 284.183 436.185C284.183 436.185 286.215 434.775 287.227 435.981C287.227 435.981 290.326 437.56 289.439 440.31L287.965 443.144L287.631 442.502C287.631 442.502 287.833 439.809 286.081 440.56Z" fill="#3F3D56"/>
<path d="M289.163 493.628H286.397V497.598H289.163V493.628Z" fill="#F3A3A6"/>
<path d="M283.704 500C283.413 500 283.154 499.993 282.959 499.975C282.225 499.907 281.523 499.357 281.171 499.037C281.012 498.892 280.962 498.663 281.044 498.465C281.103 498.323 281.221 498.216 281.367 498.175L283.309 497.614L286.452 495.468L286.487 495.532C286.501 495.556 286.81 496.119 286.913 496.498C286.952 496.642 286.942 496.763 286.882 496.856C286.841 496.92 286.783 496.958 286.737 496.979C286.794 497.039 286.972 497.162 287.521 497.25C288.323 497.379 288.492 496.538 288.499 496.503L288.504 496.475L288.528 496.459C288.909 496.211 289.144 496.097 289.225 496.121C289.275 496.136 289.36 496.163 289.588 498.451C289.611 498.524 289.77 499.05 289.662 499.554C289.545 500.102 287.178 499.913 286.704 499.871C286.691 499.872 284.919 500 283.705 500H283.704Z" fill="white"/>
<path d="M295.019 487.677L292.889 489.461L295.39 492.52L297.52 490.736L295.019 487.677Z" fill="#F3A3A6"/>
<path d="M294.829 496.102C294.605 496.289 294.402 496.451 294.24 496.563C293.632 496.984 292.746 497.014 292.273 496.994C292.06 496.984 291.877 496.84 291.815 496.634C291.771 496.486 291.795 496.328 291.881 496.201L293.023 494.516L294.093 490.836L294.16 490.863C294.185 490.873 294.777 491.108 295.096 491.334C295.218 491.419 295.285 491.519 295.298 491.629C295.307 491.705 295.286 491.772 295.264 491.819C295.346 491.828 295.56 491.808 296.039 491.522C296.738 491.105 296.339 490.347 296.32 490.315L296.307 490.29L296.315 490.263C296.452 489.825 296.562 489.587 296.64 489.554C296.689 489.532 296.769 489.498 298.387 491.116C298.45 491.156 298.905 491.459 299.139 491.917C299.393 492.416 297.451 493.797 297.059 494.069C297.049 494.078 295.764 495.319 294.829 496.102Z" fill="white"/>
<path d="M281.824 463.014H291.31L289.202 494.739H286.041L281.826 463.014H281.824Z" fill="white"/>
<path d="M283.756 464.762L281.824 463.014L282.79 480.462L293.593 490.859L296.287 488.608L289.992 480.343L283.756 464.762Z" fill="white"/>
<path d="M283.756 444.352L288.44 443.582L289.896 446.156C291.744 449.427 292.499 453.216 292.046 456.957L291.31 463.014H281.824L283.756 444.352Z" fill="#F5821F"/>
<path d="M274.186 464.515C273.399 465.117 273.083 466.027 273.481 466.548C273.878 467.069 274.84 467.004 275.627 466.401C275.945 466.165 276.2 465.853 276.369 465.491L279.67 462.896L278.374 461.309L275.256 464.036C274.862 464.106 274.495 464.27 274.183 464.515H274.186Z" fill="#F3A3A6"/>
<path d="M275.5 463.272L281.786 456.82L285.54 449.534C285.95 448.739 286.685 448.188 287.558 448.025C288.43 447.862 289.311 448.111 289.975 448.705C291.059 449.678 291.252 451.319 290.425 452.521L285.025 460.378L285.017 460.39L276.756 465.313L275.501 463.271H275.5V463.272Z" fill="#F5821F"/>
<rect x="17" y="17" width="339" height="134" rx="10" fill="white"/>
<path d="M312.656 0H53.9062C39.6094 0 25.8982 5.67939 15.7888 15.7888C5.67939 25.8982 0 39.6094 0 53.9062V528.281C0 542.578 5.67939 556.289 15.7888 566.399C25.8982 576.508 39.6094 582.188 53.9062 582.188H312.656C326.953 582.188 340.664 576.508 350.774 566.399C360.883 556.289 366.562 542.578 366.562 528.281V53.9062C366.562 39.6094 360.883 25.8982 350.774 15.7888C340.664 5.67939 326.953 0 312.656 0ZM345 528.281C345 536.859 341.592 545.086 335.527 551.152C329.461 557.217 321.234 560.625 312.656 560.625H53.9062C45.3282 560.625 37.1014 557.217 31.0358 551.152C24.9701 545.086 21.5625 536.859 21.5625 528.281V53.9062C21.5625 45.3282 24.9701 37.1014 31.0358 31.0358C37.1014 24.9701 45.3282 21.5625 53.9062 21.5625H312.656C321.234 21.5625 329.461 24.9701 335.527 31.0358C341.592 37.1014 345 45.3282 345 53.9062V528.281ZM204.844 107.812C204.844 112.077 203.579 116.246 201.21 119.792C198.841 123.338 195.473 126.102 191.533 127.734C187.593 129.366 183.257 129.793 179.075 128.961C174.892 128.129 171.05 126.075 168.034 123.059C165.019 120.044 162.965 116.202 162.133 112.019C161.301 107.836 161.728 103.501 163.36 99.5609C164.992 95.6209 167.756 92.2533 171.302 89.8839C174.848 87.5146 179.017 86.25 183.281 86.25C189 86.25 194.484 88.5218 198.528 92.5655C202.572 96.6093 204.844 102.094 204.844 107.812Z" fill="#F5821F"/>
</svg>
