<svg width="619" height="643" viewBox="0 0 619 643" fill="none" xmlns="http://www.w3.org/2000/svg">
<path d="M491.358 4.54492C515.167 3.01384 532.951 4.70276 543.198 9.73633C548.184 12.1853 551.01 15.2375 552.194 18.7773C553.362 22.2679 553.18 26.9565 550.666 33.2402L550.415 33.8535C525.888 92.6388 550.855 147.945 575.855 205.387C601.072 263.325 626.779 324.17 608.096 396.467C589.416 468.748 545.611 505.512 487.386 534.838C458.147 549.564 425.459 562.322 390.449 576.781C355.516 591.209 318.436 607.27 280.806 628.498C262.972 638.558 245.233 640.641 227.736 636.541C210.127 632.415 192.526 621.964 175.289 606.552C140.777 575.694 108.538 525.687 81.4941 470.231C54.4865 414.851 32.8304 354.393 19.3447 302.957C12.6017 277.238 7.92006 253.845 5.62305 234.518C3.30784 215.037 3.48108 200.18 6.07129 191.243C7.22325 187.269 10.2941 182.509 15.5566 177.054C20.7704 171.649 27.8794 165.822 36.6777 159.679C54.2705 147.395 78.2548 134.1 106.414 120.615C162.709 93.6567 235.248 66.1462 305.64 44.6113C376.089 23.0587 444.084 7.58503 491.358 4.54492Z" stroke="#F5821F" stroke-width="8"/>
<g filter="url(#filter0_d_15_148)">
<path d="M66.7059 133.409C89.3305 55.3496 631.352 19.5347 583.841 133.409C536.329 247.283 578.548 395.457 540.409 543.038C502.27 690.619 249.965 475.015 100.32 559.434C-49.3263 643.852 44.0812 211.468 66.7059 133.409Z" fill="#E6B100"/>
</g>
<path d="M186.299 352.19C173.809 352.19 161.728 347.73 152.236 339.612C149.067 336.901 145.694 332.189 142.207 325.606C139.982 321.366 138.735 316.681 138.559 311.896C138.384 307.11 139.283 302.346 141.192 297.954C139.352 299.826 137.317 301.495 135.122 302.933L134.012 303.672L133.948 302.341C133.906 301.476 133.883 300.613 133.883 299.777C133.883 294.853 137.607 289.856 135.887 285.304C128.646 266.12 105.685 247.055 138.965 217.365C142.043 214.618 137.93 209.127 137.93 204.971C137.93 164.247 182.178 103.157 211.8 131.116C229.09 147.435 265.113 159.028 281.933 181.728L282.155 182.4L281.499 182.666C278.14 184.078 274.603 185.02 270.987 185.465C274.844 186.252 278.78 186.582 282.715 186.448L283.324 186.427L283.473 187.02C284.937 192.892 285.676 198.921 285.675 204.973V205.627C285.662 210.223 286.617 214.771 288.478 218.973C290.34 223.175 293.066 226.938 296.479 230.016C301.871 234.933 306.18 240.919 309.131 247.593C312.082 254.267 313.61 261.483 313.618 268.78C313.618 277.414 307.75 288.747 302.828 296.734C301.58 298.768 299.888 300.494 297.878 301.781C295.869 303.068 293.594 303.883 291.224 304.166C288.979 304.449 286.7 304.235 284.547 303.54C282.394 302.844 280.421 301.684 278.766 300.141C281.096 304.826 284.132 309.125 287.768 312.887L288.44 313.579L287.606 314.065C279.592 318.738 270.481 321.198 261.204 321.195H260.661C246.577 321.195 233.208 326.651 223.983 336.165C219.085 341.21 213.229 345.227 206.758 347.979C200.287 350.731 193.331 352.162 186.299 352.19Z" fill="#F5821F"/>
<path d="M167.816 434.294C167.589 434.294 167.37 434.212 167.199 434.063C167.028 433.915 166.916 433.709 166.884 433.485C166.844 433.204 162.922 404.913 166.445 367.315C169.698 332.592 180.146 282.578 211.444 241.502C211.598 241.309 211.821 241.183 212.066 241.152C212.311 241.121 212.558 241.188 212.755 241.338C212.951 241.487 213.081 241.708 213.116 241.953C213.152 242.197 213.09 242.446 212.944 242.645C181.916 283.365 171.552 333.013 168.319 367.491C164.816 404.871 168.707 432.94 168.748 433.219C168.767 433.353 168.757 433.489 168.719 433.618C168.681 433.748 168.615 433.868 168.526 433.97C168.438 434.072 168.328 434.153 168.206 434.209C168.083 434.265 167.949 434.294 167.814 434.294H167.816Z" fill="white"/>
<path d="M196.394 298.402C196.195 298.402 196.001 298.339 195.84 298.222C195.679 298.105 195.559 297.94 195.497 297.751C195.436 297.562 195.436 297.358 195.497 297.168C195.558 296.979 195.678 296.814 195.839 296.697C204.757 290.66 214.391 285.756 224.52 282.097C240.343 276.304 264.406 271.051 289.18 278.935C289.3 278.971 289.413 279.03 289.51 279.109C289.607 279.189 289.688 279.287 289.747 279.397C289.806 279.508 289.842 279.63 289.853 279.755C289.865 279.88 289.851 280.006 289.813 280.126C289.775 280.245 289.713 280.356 289.631 280.452C289.55 280.547 289.45 280.626 289.338 280.682C289.226 280.739 289.103 280.772 288.978 280.781C288.853 280.789 288.727 280.772 288.608 280.732C264.344 273.01 240.718 278.175 225.17 283.867C215.205 287.463 205.725 292.285 196.949 298.222C196.788 298.339 196.593 298.402 196.394 298.402Z" fill="white"/>
<path d="M152.607 187.073C152.592 186.874 152.641 186.676 152.746 186.507C152.851 186.338 153.007 186.207 153.191 186.132C153.376 186.056 153.579 186.042 153.772 186.089C153.966 186.137 154.139 186.244 154.267 186.396C160.93 194.857 166.516 204.113 170.895 213.951C177.813 229.316 184.784 252.941 178.704 278.213C178.677 278.336 178.627 278.453 178.555 278.556C178.483 278.66 178.391 278.748 178.284 278.815C178.178 278.882 178.059 278.927 177.935 278.948C177.81 278.968 177.683 278.964 177.561 278.934C177.438 278.905 177.323 278.851 177.222 278.776C177.12 278.701 177.035 278.607 176.971 278.499C176.906 278.39 176.864 278.27 176.847 278.146C176.83 278.021 176.838 277.894 176.871 277.772C182.826 253.015 175.972 229.822 169.177 214.725C164.872 205.044 159.38 195.936 152.827 187.611C152.698 187.459 152.621 187.271 152.607 187.073Z" fill="white"/>
<path d="M308.955 407.092H263.693V395.657H280.505C281.533 395.657 282.52 395.249 283.248 394.521C283.975 393.793 284.384 392.807 284.384 391.778V379.39C284.384 378.361 283.975 377.374 283.248 376.647C282.52 375.919 281.533 375.51 280.505 375.51H263.693V371.631C263.693 370.259 263.148 368.943 262.178 367.973C261.208 367.003 259.892 366.458 258.52 366.458C257.148 366.458 255.832 367.003 254.862 367.973C253.892 368.943 253.347 370.259 253.347 371.631V375.51H191.213C190.41 375.51 189.626 375.758 188.97 376.222L180.224 382.42C179.718 382.778 179.305 383.253 179.021 383.804C178.736 384.355 178.587 384.966 178.587 385.586C178.587 386.206 178.736 386.817 179.021 387.368C179.305 387.919 179.718 388.394 180.224 388.752L188.971 394.946C189.627 395.409 190.41 395.658 191.213 395.657H253.347V407.092H208.085C207.056 407.092 206.069 407.5 205.342 408.228C204.614 408.956 204.206 409.942 204.206 410.971V423.359C204.206 424.388 204.614 425.375 205.342 426.102C206.069 426.83 207.056 427.239 208.085 427.239H253.347V469.914C253.347 471.286 253.892 472.602 254.862 473.572C255.832 474.542 257.148 475.087 258.52 475.087C259.892 475.087 261.208 474.542 262.178 473.572C263.148 472.602 263.693 471.286 263.693 469.914V427.239H308.955C309.984 427.239 310.971 426.83 311.698 426.102C312.426 425.375 312.835 424.388 312.835 423.359V410.971C312.835 409.942 312.426 408.956 311.698 408.228C310.971 407.5 309.984 407.092 308.955 407.092Z" fill="#3F3D56"/>
<path d="M232.656 386.179H200.326C199.726 386.179 199.15 385.941 198.726 385.516C198.301 385.092 198.063 384.516 198.063 383.916C198.063 383.316 198.301 382.74 198.726 382.316C199.15 381.892 199.726 381.653 200.326 381.653H232.656C233.256 381.653 233.832 381.892 234.256 382.316C234.681 382.74 234.919 383.316 234.919 383.916C234.919 384.516 234.681 385.092 234.256 385.516C233.832 385.941 233.256 386.179 232.656 386.179Z" fill="#F5821F"/>
<path d="M272.745 419.156H240.415C239.815 419.156 239.239 418.918 238.815 418.493C238.391 418.069 238.152 417.493 238.152 416.893C238.152 416.293 238.391 415.717 238.815 415.293C239.239 414.868 239.815 414.63 240.415 414.63H272.745C273.346 414.63 273.921 414.868 274.346 415.293C274.77 415.717 275.008 416.293 275.008 416.893C275.008 417.493 274.77 418.069 274.346 418.493C273.921 418.918 273.346 419.156 272.745 419.156Z" fill="white"/>
<path d="M405.994 524.345C405.994 524.345 400.533 528.944 397.658 528.657C394.784 528.37 389.323 528.369 391.622 531.531C393.922 534.693 403.407 536.417 407.431 536.704C411.455 536.99 420.363 537.279 419.791 535.554C419.219 533.83 418.641 525.781 416.342 525.208C414.043 524.636 405.994 524.345 405.994 524.345Z" fill="#1E1E1E"/>
<path d="M437.339 519.831C437.339 519.831 433.314 525.728 430.468 526.224C427.623 526.719 422.362 528.187 425.425 530.615C428.488 533.043 438.089 532.154 442.043 531.349C445.996 530.544 454.656 528.427 453.639 526.92C452.622 525.413 449.905 517.816 447.535 517.88C445.166 517.944 437.339 519.831 437.339 519.831Z" fill="#1E1E1E"/>
<path d="M402.795 435.488C402.795 435.488 399.096 460.822 399.958 465.422C400.82 470.021 401.395 477.207 401.395 477.207C401.395 477.207 400.82 483.243 401.395 486.117C401.97 488.991 404.844 526.07 405.132 526.07C405.42 526.07 416.629 527.22 417.204 526.07C417.779 524.921 416.629 508.824 416.629 508.824C416.629 508.824 416.054 494.74 415.767 486.117C415.479 477.494 418.353 468.584 418.353 468.584C418.711 475.639 421.331 482.392 425.826 487.842C433.3 496.752 437.037 513.423 437.037 513.423C437.037 513.423 438.171 517.28 437.309 519.58C436.447 521.879 448.534 520.032 449.396 519.172C450.259 518.312 447.097 511.124 447.097 509.974C447.097 508.825 441.924 483.818 433.875 476.632L433.301 450.476C433.301 450.476 440.486 432.08 433.013 430.356C425.539 428.631 402.795 435.488 402.795 435.488Z" fill="#1E1E1E"/>
<path d="M408.006 367.407C408.006 367.407 412.892 379.479 411.743 381.203C410.593 382.928 425.827 375.454 425.827 375.454C425.827 375.454 420.941 363.382 420.941 361.945C420.941 360.507 408.006 367.407 408.006 367.407Z" fill="#9F616A"/>
<path d="M411.599 370.425C417.473 370.425 422.234 365.663 422.234 359.79C422.234 353.916 417.473 349.154 411.599 349.154C405.725 349.154 400.964 353.916 400.964 359.79C400.964 365.663 405.725 370.425 411.599 370.425Z" fill="#9F616A"/>
<path d="M423.732 370.678C422.029 370.457 420.298 370.674 418.703 371.309C417.107 371.943 415.7 372.975 414.615 374.305C410.878 378.904 410.303 380.054 410.303 380.054C410.303 380.054 401.393 394.426 403.118 401.612C403.538 402.261 403.922 402.932 404.267 403.624C404.842 404.774 404.842 420.87 404.267 423.457C403.693 426.044 403.118 426.906 403.692 430.643C404.267 434.38 399.096 440.415 405.134 441.567C411.173 442.72 418.066 434.956 424.393 434.956C428.264 434.888 431.964 433.347 434.738 430.645C434.738 430.645 432.726 420.01 432.152 418.573C431.578 417.136 436.311 394.122 432.152 384.944C427.993 375.766 426.403 374.02 426.403 374.02C426.403 374.02 425.456 369.816 423.732 370.678Z" fill="#F5821F"/>
<path d="M409.443 397.875V410.522L400.245 440.99C400.245 440.99 394.209 456.799 400.245 456.799C406.281 456.799 405.958 441.71 405.958 441.71L418.928 418.857C418.928 418.857 424.101 400.749 423.527 399.312C422.953 397.874 409.443 397.875 409.443 397.875Z" fill="#9F616A"/>
<path d="M414.33 379.192C414.33 379.192 405.707 382.641 408.006 391.838C410.305 401.036 408.006 400.749 408.006 400.749C408.006 400.749 419.791 399.599 423.524 402.186L424.387 398.737C424.387 398.737 427.836 378.904 414.33 379.192Z" fill="#F5821F"/>
<path d="M407.358 352.191C406.694 352.427 405.983 352.494 405.287 352.385C404.591 352.277 403.933 351.997 403.372 351.571C402.827 351.126 402.443 350.514 402.279 349.829C402.115 349.144 402.182 348.425 402.467 347.781C403.017 346.701 404.195 348.04 405.324 347.595C407.814 346.621 410.437 346.028 413.104 345.838C414.374 345.664 415.667 345.839 416.846 346.343C417.407 346.63 417.894 347.045 418.45 347.343C419.473 347.89 420.662 348.012 421.768 348.364C424.055 349.11 425.906 348.881 426.841 351.1C427.142 351.844 427.352 352.621 427.467 353.415C427.797 355.589 427.566 357.812 426.796 359.871C425.571 363.133 423.001 365.985 422.856 369.467C421.283 368.326 420.699 366.267 419.439 364.788C418.501 363.695 417.22 362.952 415.806 362.681C415.414 362.657 414.366 361.703 413.251 356.279C413.032 355.245 412.755 354.118 411.906 353.489C411.376 353.151 410.776 352.939 410.151 352.871C408.667 352.612 407.165 352.474 405.658 352.461" fill="#1E1E1E"/>
<defs>
<filter id="filter0_d_15_148" x="3.1333" y="60.8177" width="583.656" height="549.386" filterUnits="userSpaceOnUse" color-interpolation-filters="sRGB">
<feFlood flood-opacity="0" result="BackgroundImageFix"/>
<feColorMatrix in="SourceAlpha" type="matrix" values="0 0 0 0 0 0 0 0 0 0 0 0 0 0 0 0 0 0 127 0" result="hardAlpha"/>
<feOffset dx="-10" dy="10"/>
<feGaussianBlur stdDeviation="2"/>
<feComposite in2="hardAlpha" operator="out"/>
<feColorMatrix type="matrix" values="0 0 0 0 0.886275 0 0 0 0 0.909804 0 0 0 0 0.866667 0 0 0 1 0"/>
<feBlend mode="normal" in2="BackgroundImageFix" result="effect1_dropShadow_15_148"/>
<feBlend mode="normal" in="SourceGraphic" in2="effect1_dropShadow_15_148" result="shape"/>
</filter>
</defs>
</svg>
